<svg width="376" height="292" viewBox="0 0 376 292" fill="none" xmlns="http://www.w3.org/2000/svg">
    <path
        d="M410.157 23.249C425.252 -13.985 480.6 -2.91542 480.398 37.1362C480.197 69.741 519.846 86.2447 542.79 62.898C570.967 34.3185 617.862 65.7158 602.163 102.547C589.484 132.737 619.673 162.926 649.863 150.247C686.896 134.548 718.092 181.443 689.512 209.62C666.165 232.564 682.669 272.213 715.274 272.012C755.326 271.811 766.395 327.158 729.161 342.253C698.77 354.53 698.77 397.4 729.161 409.677C766.395 424.771 755.326 480.119 715.274 479.918C682.669 479.717 666.165 519.366 689.512 542.31C718.092 570.487 686.694 617.381 649.863 601.683C619.673 589.003 589.484 619.193 602.163 649.383C617.862 686.415 570.967 717.611 542.79 689.032C519.846 665.685 480.197 682.189 480.398 714.794C480.6 754.845 425.252 765.915 410.157 728.681C397.88 698.29 355.011 698.29 342.734 728.681C327.639 765.915 272.291 754.845 272.492 714.794C272.694 682.189 233.044 665.685 210.1 689.032C181.923 717.611 135.029 686.214 150.727 649.383C163.407 619.193 133.217 589.003 103.028 601.683C65.9949 617.381 34.799 570.487 63.3785 542.31C86.7252 519.366 70.2215 479.717 37.6167 479.918C-2.43495 480.119 -13.5045 424.771 23.7294 409.677C54.1204 397.4 54.1204 354.53 23.7294 342.253C-13.5045 327.158 -2.43495 271.811 37.6167 272.012C70.2215 272.213 86.7252 232.564 63.3785 209.62C34.799 181.443 66.1962 134.548 103.028 150.247C133.217 162.926 163.407 132.737 150.727 102.547C135.029 65.5145 181.923 34.3185 210.1 62.898C233.044 86.2447 272.694 69.741 272.492 37.1362C272.291 -2.91542 327.639 -13.985 342.734 23.249C355.011 53.6399 397.88 53.6399 410.157 23.249Z"
        fill="#f79b3b" />
</svg>