<svg xmlns="http://www.w3.org/2000/svg" width="761" height="761" fill="none" viewBox="0 0 761 761"><path fill="url(#paint0_linear_871_9096)" d="M414.661 23.0875C429.956 -14.6422 486.041 -3.42527 485.837 37.1597C485.633 70.1987 525.81 86.9221 549.06 63.2645C577.612 34.3044 625.131 66.1198 609.224 103.442C596.375 134.033 626.967 164.625 657.558 151.776C695.084 135.869 726.696 183.388 697.735 211.94C674.078 235.19 690.801 275.367 723.84 275.163C764.425 274.959 775.642 331.043 737.912 346.339C707.117 358.78 707.117 402.22 737.912 414.661C775.642 429.957 764.425 486.041 723.84 485.837C690.801 485.633 674.078 525.81 697.735 549.06C726.696 577.612 694.88 625.131 657.558 609.224C626.967 596.375 596.375 626.967 609.224 657.558C625.131 695.084 577.612 726.696 549.06 697.735C525.81 674.078 485.633 690.801 485.837 723.84C486.041 764.425 429.956 775.642 414.661 737.912C402.22 707.117 358.78 707.117 346.339 737.912C331.043 775.642 274.959 764.425 275.163 723.84C275.367 690.801 235.19 674.078 211.94 697.735C183.388 726.696 135.869 694.88 151.776 657.558C164.625 626.967 134.033 596.375 103.442 609.224C65.9158 625.131 34.3044 577.612 63.2645 549.06C86.9221 525.81 70.1986 485.633 37.1597 485.837C-3.42527 486.041 -14.6422 429.957 23.0875 414.661C53.8831 402.22 53.8831 358.78 23.0875 346.339C-14.6422 331.043 -3.42527 274.959 37.1597 275.163C70.1986 275.367 86.9221 235.19 63.2645 211.94C34.3044 183.388 66.1197 135.869 103.442 151.776C134.033 164.625 164.625 134.033 151.776 103.442C135.869 65.9158 183.388 34.3044 211.94 63.2645C235.19 86.9221 275.367 70.1987 275.163 37.1597C274.959 -3.42527 331.043 -14.6422 346.339 23.0875C358.78 53.8831 402.22 53.8831 414.661 23.0875Z"/><defs><linearGradient id="paint0_linear_871_9096" x1="380.5" x2="380.5" y1="761" y2="0" gradientUnits="userSpaceOnUse"><stop stop-color="#FE9836"/></linearGradient></defs></svg>