<svg width="751" height="751" viewBox="0 0 751 751" fill="none" xmlns="http://www.w3.org/2000/svg">
    <path
        d="M409.212 22.7841C424.307 -14.4498 479.654 -3.38026 479.453 36.6714C479.252 69.2762 518.901 85.7799 541.845 62.4332C570.022 33.8536 616.917 65.2509 601.218 102.082C588.538 132.272 618.728 162.462 648.918 149.782C685.95 134.083 717.146 180.978 688.567 209.155C665.22 232.099 681.724 271.748 714.329 271.547C754.38 271.346 765.45 326.693 728.216 341.788C697.825 354.065 697.825 396.935 728.216 409.212C765.45 424.307 754.38 479.654 714.329 479.453C681.724 479.252 665.22 518.901 688.567 541.845C717.146 570.022 685.749 616.917 648.918 601.218C618.728 588.538 588.538 618.728 601.218 648.918C616.917 685.95 570.022 717.146 541.845 688.567C518.901 665.22 479.252 681.724 479.453 714.329C479.654 754.38 424.307 765.45 409.212 728.216C396.935 697.825 354.065 697.825 341.788 728.216C326.693 765.45 271.346 754.38 271.547 714.329C271.748 681.724 232.099 665.22 209.155 688.567C180.978 717.146 134.083 685.749 149.782 648.918C162.462 618.728 132.272 588.538 102.082 601.218C65.0496 616.917 33.8536 570.022 62.4332 541.845C85.7799 518.901 69.2762 479.252 36.6714 479.453C-3.38026 479.654 -14.4498 424.307 22.7841 409.212C53.175 396.935 53.175 354.065 22.7841 341.788C-14.4498 326.693 -3.38026 271.346 36.6714 271.547C69.2762 271.748 85.7799 232.099 62.4332 209.155C33.8536 180.978 65.2509 134.083 102.082 149.782C132.272 162.462 162.462 132.272 149.782 102.082C134.083 65.0497 180.978 33.8536 209.155 62.4332C232.099 85.7799 271.748 69.2762 271.547 36.6714C271.346 -3.38026 326.693 -14.4498 341.788 22.7841C354.065 53.175 396.935 53.175 409.212 22.7841Z"
        fill="#FFCC00" />
</svg>