<svg width="378" height="292" viewBox="0 0 378 292" fill="none" xmlns="http://www.w3.org/2000/svg">
    <path
        d="M36.1571 23.249C51.252 -13.985 106.6 -2.91542 106.398 37.1362C106.197 69.741 145.846 86.2447 168.79 62.898C196.967 34.3185 243.862 65.7158 228.163 102.547C215.484 132.737 245.673 162.926 275.863 150.247C312.896 134.548 344.092 181.443 315.512 209.62C292.165 232.564 308.669 272.213 341.274 272.012C381.326 271.811 392.395 327.158 355.161 342.253C324.77 354.53 324.77 397.4 355.161 409.677C392.395 424.771 381.326 480.119 341.274 479.918C308.669 479.717 292.165 519.366 315.512 542.31C344.092 570.487 312.694 617.381 275.863 601.683C245.673 589.003 215.484 619.193 228.163 649.383C243.862 686.415 196.967 717.611 168.79 689.032C145.846 665.685 106.197 682.189 106.398 714.794C106.6 754.845 51.252 765.915 36.1571 728.681C23.88 698.29 -18.9893 698.29 -31.2665 728.681C-46.3613 765.915 -101.709 754.845 -101.508 714.794C-101.306 682.189 -140.956 665.685 -163.9 689.032C-192.077 717.611 -238.971 686.214 -223.273 649.383C-210.593 619.193 -240.783 589.003 -270.972 601.683C-308.005 617.381 -339.201 570.487 -310.621 542.31C-287.275 519.366 -303.778 479.717 -336.383 479.918C-376.435 480.119 -387.504 424.771 -350.271 409.677C-319.88 397.4 -319.88 354.53 -350.271 342.253C-387.504 327.158 -376.435 271.811 -336.383 272.012C-303.778 272.213 -287.275 232.564 -310.621 209.62C-339.201 181.443 -307.804 134.548 -270.972 150.247C-240.783 162.926 -210.593 132.737 -223.273 102.547C-238.971 65.5145 -192.077 34.3185 -163.9 62.898C-140.956 86.2447 -101.306 69.741 -101.508 37.1362C-101.709 -2.91542 -46.3613 -13.985 -31.2665 23.249C-18.9893 53.6399 23.88 53.6399 36.1571 23.249Z"
        fill="#f79b3b" />
</svg>