<svg width="1512" height="937" viewBox="0 0 1512 937" fill="none" xmlns="http://www.w3.org/2000/svg">
<rect width="1512" height="937" fill="url(#paint0_linear_667_791)"/>
<path d="M1388.23 11.7556C1377.71 30.2381 1367.19 30.2381 1356.68 11.7556C1367.19 30.2238 1361.94 39.465 1340.9 39.465C1361.94 39.465 1367.19 48.7063 1356.68 67.1744C1367.19 48.6919 1377.71 48.6919 1388.23 67.1744C1377.71 48.7063 1382.96 39.465 1404 39.465C1382.96 39.465 1377.71 30.2238 1388.23 11.7556Z" fill="white"/>
<path d="M211.05 602.756C200.539 621.238 190.013 621.238 179.501 602.756C190.013 621.224 184.764 630.465 163.727 630.465C184.764 630.465 190.013 639.706 179.501 658.174C190.013 639.692 200.539 639.692 211.05 658.174C200.539 639.706 205.787 630.465 226.825 630.465C205.787 630.465 200.539 621.224 211.05 602.756Z" fill="white"/>
<path d="M156.824 11.7556C146.312 30.2381 135.786 30.2381 125.275 11.7556C135.786 30.2238 130.537 39.465 109.5 39.465C130.537 39.465 135.786 48.7063 125.275 67.1744C135.786 48.6919 146.312 48.6919 156.824 67.1744C146.312 48.7063 151.561 39.465 172.598 39.465C151.561 39.465 146.312 30.2238 156.824 11.7556Z" fill="white"/>
<path d="M713.863 751.756C703.351 770.238 692.826 770.238 682.314 751.756C692.826 770.224 687.577 779.465 666.539 779.465C687.577 779.465 692.826 788.706 682.314 807.174C692.826 788.692 703.351 788.692 713.863 807.174C703.351 788.706 708.6 779.465 729.638 779.465C708.6 779.465 703.351 770.224 713.863 751.756Z" fill="white"/>
<path d="M1267.94 413.756C1257.43 432.238 1246.91 432.238 1236.4 413.756C1246.91 432.224 1241.66 441.465 1220.62 441.465C1241.66 441.465 1246.91 450.706 1236.4 469.174C1246.91 450.692 1257.43 450.692 1267.94 469.174C1257.43 450.706 1262.68 441.465 1283.72 441.465C1262.68 441.465 1257.43 432.224 1267.94 413.756Z" fill="white"/>
<path d="M899.607 394.327L864.546 408.458L868.606 370.534L831.223 375.339L844.393 339.626L807.089 334.893L828.576 303.584L793.54 289.671L822.124 264.707L791.569 242.33L825.381 225.39L801.296 196.059L838.154 188.175L822.024 153.682L859.684 155.39L852.578 117.862L888.617 129.014L890.878 90.8461L923.084 110.726L934.653 74.4228L960.938 101.693L981.157 69.4107L999.888 102.538L1027.35 76.3418L1037.37 113.151L1070.35 94.6823L1071.05 132.851L1107.52 123.242L1098.86 160.438L1136.54 160.311L1119.06 194.193L1155.51 203.623L1130.27 231.926L1163.36 250.246L1131.87 271.314L1159.42 297.362L1123.79 309.89L1144.08 342.082L1106.54 345.175L1118.23 381.459L1081.11 374.99L1083.54 413.13L1049.14 397.507L1042.09 435.071L1012.68 411.284L996.665 445.793L973.968 415.426L950.029 444.839L935.445 409.634L905.06 432.158L899.607 394.327Z" fill="url(#paint1_linear_667_791)"/>
<path d="M325.307 656.483L280.974 674.351L286.107 626.397L238.838 632.473L255.491 587.316L208.321 581.332L235.491 541.743L191.189 524.149L227.333 492.584L188.697 464.288L231.452 442.869L200.997 405.78L247.602 395.812L227.207 352.197L274.826 354.357L265.84 306.904L311.411 321.005L314.27 272.743L354.993 297.88L369.621 251.976L402.858 286.458L428.424 245.639L452.108 287.528L486.834 254.403L499.508 300.947L541.203 277.594L542.09 325.857L588.21 313.706L577.26 360.74L624.906 360.578L602.799 403.421L648.89 415.345L616.969 451.133L658.816 474.298L618.995 500.938L653.833 533.875L608.781 549.716L634.437 590.422L586.961 594.332L601.743 640.212L554.815 632.032L557.885 680.258L514.383 660.504L505.475 708.002L468.287 677.925L448.034 721.56L419.334 683.162L389.064 720.353L370.622 675.838L332.202 704.319L325.307 656.483Z" fill="url(#paint2_linear_667_791)"/>
<defs>
<linearGradient id="paint0_linear_667_791" x1="756" y1="0" x2="756" y2="937" gradientUnits="userSpaceOnUse">
<stop stop-color="#FFCB01"/>
<stop offset="1" stop-color="#E76EC2"/>
</linearGradient>
<linearGradient id="paint1_linear_667_791" x1="884.803" y1="420.308" x2="1074.03" y2="96.8358" gradientUnits="userSpaceOnUse">
<stop stop-color="#FFCB01"/>
<stop offset="1" stop-color="#E76EC2"/>
</linearGradient>
<linearGradient id="paint2_linear_667_791" x1="306.588" y1="689.335" x2="545.858" y2="280.317" gradientUnits="userSpaceOnUse">
<stop stop-color="#FFCB01"/>
<stop offset="1" stop-color="#E76EC2"/>
</linearGradient>
</defs>
</svg>
