<svg width="293" height="107" viewBox="0 0 293 107" fill="none" xmlns="http://www.w3.org/2000/svg">
    <path
        d="M137.322 7.75586L151.44 29.7559L137.322 51.7559H27.3369L13.8027 29.7559L27.3369 7.75586H137.322Z"
        fill="#9E34F9" stroke="#6F31CF" stroke-width="2" />
    <path
        d="M133.891 1.75586L148.971 23.707L133.891 45.6592H16.2822L1.82617 23.707L16.2822 1.75586H133.891Z"
        fill="white" stroke="#6F31CF" stroke-width="2" />
    <path
        d="M33.5656 31.7559V15.7559H37.2656C38.759 15.7559 39.849 16.0592 40.5356 16.6659C41.2223 17.2659 41.5656 18.2625 41.5656 19.6559C41.5656 19.8425 41.5656 20.0225 41.5656 20.1959C41.5656 20.3692 41.559 20.5425 41.5456 20.7159C41.499 21.4425 41.3356 22.0225 41.0556 22.4559C40.7756 22.8825 40.339 23.1959 39.7456 23.3959V23.8759C40.359 24.0759 40.809 24.3959 41.0956 24.8359C41.3823 25.2692 41.539 25.8625 41.5656 26.6159C41.579 26.8359 41.5856 27.0392 41.5856 27.2259C41.5856 27.4125 41.579 27.6225 41.5656 27.8559C41.5056 29.2425 41.1456 30.2392 40.4856 30.8459C39.8323 31.4525 38.759 31.7559 37.2656 31.7559H33.5656ZM36.5656 29.1159H37.2656C37.6856 29.1159 38.0056 29.0059 38.2256 28.7859C38.4523 28.5592 38.5656 28.2359 38.5656 27.8159C38.5656 27.6359 38.5656 27.4592 38.5656 27.2859C38.5656 27.1125 38.5656 26.9359 38.5656 26.7559C38.5656 26.0959 38.4623 25.6292 38.2556 25.3559C38.0556 25.0759 37.7256 24.9359 37.2656 24.9359H36.5656V29.1159ZM36.5656 22.2959H37.2656C37.6856 22.2959 38.0056 22.1525 38.2256 21.8659C38.4523 21.5725 38.5656 21.1625 38.5656 20.6359C38.5656 20.4425 38.5656 20.2525 38.5656 20.0659C38.5656 19.8725 38.5656 19.6825 38.5656 19.4959C38.5656 19.1425 38.4523 18.8725 38.2256 18.6859C38.0056 18.4925 37.6856 18.3959 37.2656 18.3959H36.5656V22.2959ZM43.0188 31.7559V15.7559H49.9388V18.3959H46.0188V22.2959H49.7388V24.9359H46.0188V29.1159H49.9388V31.7559H43.0188ZM51.1828 31.7559V15.7559H55.5228L56.7228 20.8559L57.8228 29.1159H58.3428L57.7828 22.6159L57.5428 15.7559H60.4428V31.7559H55.8828L54.6828 26.5159L53.8628 18.3759H53.3028L53.8228 25.6159L54.0828 31.7559H51.1828ZM66.2222 31.9559C65.2155 31.9559 64.4089 31.8225 63.8022 31.5559C63.1955 31.2825 62.7522 30.8525 62.4722 30.2659C62.1922 29.6725 62.0355 28.8959 62.0022 27.9359C61.9822 27.3759 61.9655 26.7392 61.9522 26.0259C61.9455 25.3059 61.9422 24.5659 61.9422 23.8059C61.9422 23.0459 61.9455 22.3125 61.9522 21.6059C61.9655 20.8992 61.9822 20.2759 62.0022 19.7359C62.0422 18.7225 62.2055 17.9092 62.4922 17.2959C62.7855 16.6825 63.2322 16.2392 63.8322 15.9659C64.4389 15.6925 65.2355 15.5559 66.2222 15.5559C67.6222 15.5559 68.6422 15.8659 69.2822 16.4859C69.9289 17.0992 70.2955 18.1225 70.3822 19.5559C70.4022 19.8625 70.4122 20.2292 70.4122 20.6559C70.4122 21.0759 70.4022 21.4425 70.3822 21.7559H67.3822C67.4022 21.3825 67.4122 20.9225 67.4122 20.3759C67.4122 19.8225 67.4022 19.3625 67.3822 18.9959C67.3622 18.6759 67.2522 18.4292 67.0522 18.2559C66.8522 18.0825 66.5755 17.9959 66.2222 17.9959C65.8355 17.9959 65.5389 18.0825 65.3322 18.2559C65.1322 18.4292 65.0222 18.6759 65.0022 18.9959C64.9622 19.6959 64.9322 20.4525 64.9122 21.2659C64.8922 22.0725 64.8822 22.8992 64.8822 23.7459C64.8822 24.5925 64.8922 25.4225 64.9122 26.2359C64.9322 27.0425 64.9622 27.7959 65.0022 28.4959C65.0222 28.8225 65.1322 29.0759 65.3322 29.2559C65.5389 29.4292 65.8355 29.5159 66.2222 29.5159C66.6022 29.5159 66.9055 29.4292 67.1322 29.2559C67.3655 29.0759 67.4955 28.8225 67.5222 28.4959C67.5355 28.3425 67.5422 28.1425 67.5422 27.8959C67.5489 27.6425 67.5489 27.3925 67.5422 27.1459C67.5422 26.8925 67.5355 26.6892 67.5222 26.5359H66.4222V23.9359H70.4422C70.4755 24.5425 70.4889 25.2092 70.4822 25.9359C70.4755 26.6559 70.4555 27.3225 70.4222 27.9359C70.3555 29.3759 69.9955 30.4059 69.3422 31.0259C68.6955 31.6459 67.6555 31.9559 66.2222 31.9559ZM71.2078 31.7559L73.4278 15.7559H78.1478L80.3678 31.7559H77.2878L76.9478 28.4159H74.6278L74.2878 31.7559H71.2078ZM74.9078 25.7759H76.6678L76.3078 22.2359L76.0678 18.3959H75.5078L75.2678 22.2359L74.9078 25.7759ZM81.3586 31.7559V15.7559H84.3586V29.1159H88.2986V31.7559H81.3586ZM93.4855 31.9559C91.9855 31.9559 90.9121 31.6459 90.2655 31.0259C89.6188 30.4059 89.2855 29.3759 89.2655 27.9359C89.2388 25.9225 89.2255 23.8925 89.2255 21.8459C89.2255 19.7925 89.2388 17.7625 89.2655 15.7559H92.2655C92.2388 17.0959 92.2221 18.4925 92.2155 19.9459C92.2155 21.3992 92.2188 22.8525 92.2255 24.3059C92.2388 25.7592 92.2521 27.1559 92.2655 28.4959C92.2655 28.8225 92.3721 29.0759 92.5855 29.2559C92.7988 29.4292 93.0988 29.5159 93.4855 29.5159C93.8788 29.5159 94.1755 29.4292 94.3755 29.2559C94.5821 29.0759 94.6855 28.8225 94.6855 28.4959C94.6988 27.1559 94.7088 25.7592 94.7155 24.3059C94.7288 22.8525 94.7321 21.3992 94.7255 19.9459C94.7255 18.4925 94.7121 17.0959 94.6855 15.7559H97.6855C97.7188 17.7625 97.7355 19.7925 97.7355 21.8459C97.7355 23.8925 97.7188 25.9225 97.6855 27.9359C97.6655 29.3759 97.3321 30.4059 96.6855 31.0259C96.0455 31.6459 94.9788 31.9559 93.4855 31.9559ZM99.1516 31.7559V15.7559H103.012C104.505 15.7559 105.582 16.0592 106.242 16.6659C106.908 17.2659 107.265 18.2625 107.312 19.6559C107.325 20.0292 107.332 20.3559 107.332 20.6359C107.338 20.9159 107.338 21.1959 107.332 21.4759C107.332 21.7559 107.325 22.0825 107.312 22.4559C107.285 23.3225 107.138 24.0325 106.872 24.5859C106.612 25.1392 106.205 25.5625 105.652 25.8559L107.532 31.7559H104.352L102.832 26.3559H102.152V31.7559H99.1516ZM102.152 23.7159H103.012C103.432 23.7159 103.748 23.6192 103.962 23.4259C104.175 23.2325 104.292 22.9625 104.312 22.6159C104.332 22.2892 104.345 21.9492 104.352 21.5959C104.358 21.2359 104.358 20.8792 104.352 20.5259C104.345 20.1659 104.332 19.8225 104.312 19.4959C104.292 19.1425 104.175 18.8725 103.962 18.6859C103.748 18.4925 103.432 18.3959 103.012 18.3959H102.152V23.7159ZM112.763 31.9559C111.263 31.9559 110.189 31.6459 109.543 31.0259C108.896 30.4059 108.563 29.3759 108.543 27.9359C108.516 25.9225 108.503 23.8925 108.503 21.8459C108.503 19.7925 108.516 17.7625 108.543 15.7559H111.543C111.516 17.0959 111.499 18.4925 111.493 19.9459C111.493 21.3992 111.496 22.8525 111.503 24.3059C111.516 25.7592 111.529 27.1559 111.543 28.4959C111.543 28.8225 111.649 29.0759 111.863 29.2559C112.076 29.4292 112.376 29.5159 112.763 29.5159C113.156 29.5159 113.453 29.4292 113.653 29.2559C113.859 29.0759 113.963 28.8225 113.963 28.4959C113.976 27.1559 113.986 25.7592 113.993 24.3059C114.006 22.8525 114.009 21.3992 114.003 19.9459C114.003 18.4925 113.989 17.0959 113.963 15.7559H116.963C116.996 17.7625 117.013 19.7925 117.013 21.8459C117.013 23.8925 116.996 25.9225 116.963 27.9359C116.943 29.3759 116.609 30.4059 115.963 31.0259C115.323 31.6459 114.256 31.9559 112.763 31.9559Z"
        fill="#6F31CF" />
    <path
        d="M137.322 61.7559L151.44 83.7559L137.322 105.756H27.3369L13.8027 83.7559L27.3369 61.7559H137.322Z"
        fill="#9E34F9" stroke="#6F31CF" stroke-width="2" />
    <path
        d="M133.891 55.7559L148.971 77.707L133.891 99.6592H16.2822L1.82617 77.707L16.2822 55.7559H133.891Z"
        fill="white" stroke="#6F31CF" stroke-width="2" />
    <path
        d="M33.4172 85.7559V69.7559H36.4172V85.7559H33.4172ZM38.0266 85.7559V69.7559H42.3666L43.5666 74.8559L44.6666 83.1159H45.1866L44.6266 76.6159L44.3866 69.7559H47.2866V85.7559H42.7266L41.5266 80.5159L40.7066 72.3759H40.1466L40.6666 79.6159L40.9266 85.7559H38.0266ZM50.6059 85.7559L48.2859 69.7559H51.3859L52.5659 77.7759L52.7459 83.1159H53.3059L53.4859 77.7759L54.6659 69.7559H57.7659L55.4459 85.7559H50.6059ZM58.7688 85.7559V69.7559H61.7688V85.7559H58.7688ZM65.2681 85.7559V72.3959H62.6981V69.7559H70.8381V72.3959H68.2681V85.7559H65.2681ZM71.757 85.7559V69.7559H78.677V72.3959H74.757V76.2959H78.477V78.9359H74.757V83.1159H78.677V85.7559H71.757ZM88.4756 85.9559C87.009 85.9559 85.9456 85.6459 85.2856 85.0259C84.6323 84.4059 84.289 83.3759 84.2556 81.9359C84.2423 81.2825 84.2323 80.6025 84.2256 79.8959C84.219 79.1892 84.2156 78.4725 84.2156 77.7459C84.2156 77.0192 84.219 76.3025 84.2256 75.5959C84.2323 74.8892 84.2423 74.2092 84.2556 73.5559C84.289 72.1225 84.6323 71.0992 85.2856 70.4859C85.9456 69.8659 87.009 69.5559 88.4756 69.5559C89.949 69.5559 91.0056 69.8659 91.6456 70.4859C92.2856 71.0992 92.629 72.1225 92.6756 73.5559C92.7023 74.2225 92.7223 74.9092 92.7356 75.6159C92.749 76.3225 92.7556 77.0392 92.7556 77.7659C92.7556 78.4859 92.749 79.1992 92.7356 79.9059C92.7223 80.6059 92.7023 81.2825 92.6756 81.9359C92.629 83.3759 92.2856 84.4059 91.6456 85.0259C91.0056 85.6459 89.949 85.9559 88.4756 85.9559ZM88.4756 83.5159C88.869 83.5159 89.1656 83.4292 89.3656 83.2559C89.5656 83.0759 89.669 82.8225 89.6756 82.4959C89.709 81.8159 89.7323 81.0692 89.7456 80.2559C89.759 79.4425 89.7656 78.6059 89.7656 77.7459C89.7656 76.8859 89.759 76.0492 89.7456 75.2359C89.7323 74.4225 89.709 73.6759 89.6756 72.9959C89.669 72.6759 89.5623 72.4292 89.3556 72.2559C89.149 72.0825 88.8556 71.9959 88.4756 71.9959C88.0956 71.9959 87.799 72.0825 87.5856 72.2559C87.379 72.4292 87.269 72.6759 87.2556 72.9959C87.229 73.6759 87.2056 74.4225 87.1856 75.2359C87.1723 76.0492 87.1656 76.8859 87.1656 77.7459C87.1656 78.6059 87.1723 79.4425 87.1856 80.2559C87.2056 81.0692 87.229 81.8159 87.2556 82.4959C87.269 82.8225 87.379 83.0759 87.5856 83.2559C87.799 83.4292 88.0956 83.5159 88.4756 83.5159ZM94.2375 85.7559V69.7559H98.5775L99.7775 74.8559L100.878 83.1159H101.398L100.838 76.6159L100.598 69.7559H103.498V85.7559H98.9375L97.7375 80.5159L96.9175 72.3759H96.3575L96.8775 79.6159L97.1375 85.7559H94.2375ZM105.097 85.7559V69.7559H108.097V83.1159H112.037V85.7559H105.097ZM113.482 85.7559V81.9559V81.9359L110.482 69.7559H113.542L114.402 73.6359L114.702 78.3359H115.262L115.562 73.6359L116.422 69.7559H119.482L116.482 81.9359V81.9559V85.7559H113.482Z"
        fill="#6F31CF" />
    <path
        d="M277.329 34.7559L291.433 56.2559L277.329 77.7559H167.331L153.81 56.2559L167.331 34.7559H277.329Z"
        fill="#9E34F9" stroke="#6F31CF" stroke-width="2" />
    <path
        d="M274.891 28.7559L289.971 50.707L274.891 72.6592H157.282L142.826 50.707L157.282 28.7559H274.891Z"
        fill="white" stroke="#6F31CF" stroke-width="2" />
    <path
        d="M166.886 58.7559V42.7559H170.946C172.446 42.7559 173.529 43.0759 174.196 43.7159C174.869 44.3492 175.219 45.3959 175.246 46.8559C175.266 47.7825 175.279 48.6625 175.286 49.4959C175.293 50.3292 175.293 51.1625 175.286 51.9959C175.279 52.8292 175.266 53.7092 175.246 54.6359C175.219 56.1025 174.869 57.1559 174.196 57.7959C173.529 58.4359 172.446 58.7559 170.946 58.7559H166.886ZM169.886 56.1159H170.946C171.366 56.1159 171.686 56.0192 171.906 55.8259C172.126 55.6325 172.239 55.3559 172.246 54.9959C172.266 54.2825 172.279 53.5725 172.286 52.8659C172.299 52.1592 172.306 51.4525 172.306 50.7459C172.306 50.0392 172.299 49.3325 172.286 48.6259C172.279 47.9125 172.266 47.2025 172.246 46.4959C172.239 46.1425 172.126 45.8725 171.906 45.6859C171.686 45.4925 171.366 45.3959 170.946 45.3959H169.886V56.1159ZM176.788 58.7559V42.7559H183.708V45.3959H179.788V49.2959H183.508V51.9359H179.788V56.1159H183.708V58.7559H176.788ZM189.102 58.9559C187.596 58.9559 186.522 58.6459 185.882 58.0259C185.249 57.4059 184.916 56.3759 184.882 54.9359C184.876 54.3825 184.869 53.7425 184.862 53.0159C184.856 52.2892 184.852 51.5359 184.852 50.7559C184.852 49.9692 184.856 49.2125 184.862 48.4859C184.869 47.7525 184.876 47.1025 184.882 46.5359C184.902 45.3159 185.242 44.3492 185.902 43.6359C186.569 42.9159 187.636 42.5559 189.102 42.5559C190.542 42.5559 191.586 42.8659 192.232 43.4859C192.879 44.0992 193.222 45.1225 193.262 46.5559C193.269 46.7759 193.272 47.0159 193.272 47.2759C193.272 47.5292 193.269 47.7859 193.262 48.0459C193.256 48.2992 193.249 48.5359 193.242 48.7559H190.242C190.249 48.5092 190.256 48.2192 190.262 47.8859C190.269 47.5459 190.272 47.2092 190.272 46.8759C190.272 46.5359 190.269 46.2425 190.262 45.9959C190.256 45.6759 190.149 45.4292 189.942 45.2559C189.742 45.0825 189.462 44.9959 189.102 44.9959C188.722 44.9959 188.426 45.0825 188.212 45.2559C188.006 45.4292 187.896 45.6759 187.882 45.9959C187.856 46.6959 187.836 47.4525 187.822 48.2659C187.816 49.0792 187.812 49.9092 187.812 50.7559C187.812 51.6025 187.816 52.4325 187.822 53.2459C187.836 54.0525 187.856 54.8025 187.882 55.4959C187.896 55.8225 188.006 56.0759 188.212 56.2559C188.426 56.4292 188.722 56.5159 189.102 56.5159C189.496 56.5159 189.799 56.4292 190.012 56.2559C190.226 56.0759 190.336 55.8225 190.342 55.4959C190.349 55.2559 190.352 54.9692 190.352 54.6359C190.359 54.2959 190.359 53.9592 190.352 53.6259C190.352 53.2859 190.349 52.9959 190.342 52.7559H193.342C193.356 53.0759 193.362 53.4392 193.362 53.8459C193.362 54.2525 193.356 54.6159 193.342 54.9359C193.302 56.3759 192.952 57.4059 192.292 58.0259C191.639 58.6459 190.576 58.9559 189.102 58.9559ZM199.192 58.7559C199.185 58.4492 199.178 58.1759 199.172 57.9359C199.165 57.6959 199.158 57.4792 199.152 57.2859C199.152 57.0859 199.152 56.8925 199.152 56.7059C199.152 56.5192 199.152 56.3259 199.152 56.1259C199.158 55.9259 199.165 55.7025 199.172 55.4559C199.192 54.7692 199.312 54.1425 199.532 53.5759C199.752 53.0025 200.078 52.4825 200.512 52.0159C200.952 51.5492 201.512 51.1292 202.192 50.7559L203.532 50.0159C203.952 49.7825 204.225 49.4859 204.352 49.1259C204.478 48.7592 204.545 48.4425 204.552 48.1759C204.572 47.8159 204.582 47.4525 204.582 47.0859C204.582 46.7192 204.572 46.3559 204.552 45.9959C204.532 45.6759 204.418 45.4292 204.212 45.2559C204.012 45.0825 203.712 44.9959 203.312 44.9959C202.945 44.9959 202.665 45.0825 202.472 45.2559C202.285 45.4292 202.185 45.6759 202.172 45.9959C202.152 46.4559 202.142 46.9159 202.142 47.3759C202.142 47.8359 202.152 48.2959 202.172 48.7559H199.212C199.198 48.5225 199.188 48.2725 199.182 48.0059C199.175 47.7392 199.168 47.4792 199.162 47.2259C199.162 46.9725 199.165 46.7492 199.172 46.5559C199.232 45.1225 199.582 44.0992 200.222 43.4859C200.862 42.8659 201.892 42.5559 203.312 42.5559C204.318 42.5559 205.125 42.6925 205.732 42.9659C206.338 43.2325 206.782 43.6592 207.062 44.2459C207.348 44.8325 207.512 45.6025 207.552 46.5559C207.558 46.6825 207.562 46.8125 207.562 46.9459C207.568 47.0725 207.572 47.2025 207.572 47.3359C207.572 47.4692 207.568 47.6059 207.562 47.7459C207.562 47.8859 207.558 48.0292 207.552 48.1759C207.532 48.8425 207.412 49.4459 207.192 49.9859C206.978 50.5192 206.665 50.9992 206.252 51.4259C205.838 51.8525 205.325 52.2359 204.712 52.5759L203.152 53.4359C202.898 53.5759 202.702 53.7692 202.562 54.0159C202.422 54.2625 202.325 54.5192 202.272 54.7859C202.218 55.0459 202.192 55.2692 202.192 55.4559V56.1159H207.292V58.7559H199.192ZM213.156 58.9559C211.71 58.9559 210.656 58.6459 209.996 58.0259C209.336 57.4059 208.976 56.3759 208.916 54.9359C208.91 54.7825 208.906 54.6325 208.906 54.4859C208.913 54.3325 208.92 54.1825 208.926 54.0359C208.933 53.8892 208.943 53.7425 208.956 53.5959C209.03 52.8625 209.203 52.2825 209.476 51.8559C209.756 51.4292 210.17 51.0959 210.716 50.8559V50.4159C210.35 50.2759 210.023 50.0492 209.736 49.7359C209.45 49.4159 209.256 49.0159 209.156 48.5359C209.123 48.3759 209.093 48.1692 209.066 47.9159C209.046 47.6625 209.03 47.4125 209.016 47.1659C209.01 46.9192 209.01 46.7225 209.016 46.5759C209.076 45.1359 209.426 44.1059 210.066 43.4859C210.706 42.8659 211.736 42.5559 213.156 42.5559C214.576 42.5559 215.603 42.8659 216.236 43.4859C216.876 44.1059 217.23 45.1359 217.296 46.5759C217.303 46.7225 217.3 46.9192 217.286 47.1659C217.28 47.4125 217.263 47.6625 217.236 47.9159C217.216 48.1692 217.19 48.3759 217.156 48.5359C217.056 49.0159 216.863 49.4159 216.576 49.7359C216.296 50.0492 215.97 50.2759 215.596 50.4159V50.8759C216.09 51.1159 216.483 51.4492 216.776 51.8759C217.076 52.3025 217.27 52.8759 217.356 53.5959C217.39 53.8159 217.406 54.0359 217.406 54.2559C217.413 54.4759 217.41 54.7025 217.396 54.9359C217.336 56.3759 216.976 57.4059 216.316 58.0259C215.663 58.6459 214.61 58.9559 213.156 58.9559ZM213.156 56.5159C213.576 56.5159 213.886 56.4159 214.086 56.2159C214.293 56.0092 214.396 55.7159 214.396 55.3359C214.396 55.1092 214.396 54.8825 214.396 54.6559C214.396 54.4225 214.396 54.1925 214.396 53.9659C214.396 53.7325 214.396 53.5025 214.396 53.2759C214.396 52.8959 214.293 52.6059 214.086 52.4059C213.886 52.1992 213.576 52.0959 213.156 52.0959C212.736 52.0959 212.423 52.1992 212.216 52.4059C212.016 52.6059 211.916 52.8959 211.916 53.2759C211.916 53.6159 211.916 53.9592 211.916 54.3059C211.916 54.6525 211.916 54.9959 211.916 55.3359C211.916 55.7159 212.016 56.0092 212.216 56.2159C212.423 56.4159 212.736 56.5159 213.156 56.5159ZM213.156 49.2359C213.576 49.2359 213.886 49.1359 214.086 48.9359C214.293 48.7292 214.396 48.4359 214.396 48.0559C214.396 47.7425 214.396 47.4292 214.396 47.1159C214.396 46.7959 214.396 46.4825 214.396 46.1759C214.396 45.7959 214.293 45.5059 214.086 45.3059C213.886 45.0992 213.576 44.9959 213.156 44.9959C212.736 44.9959 212.423 45.0992 212.216 45.3059C212.016 45.5059 211.916 45.7959 211.916 46.1759C211.916 46.3292 211.916 46.4859 211.916 46.6459C211.916 46.7992 211.916 46.9559 211.916 47.1159C211.916 47.2759 211.916 47.4359 211.916 47.5959C211.916 47.7492 211.916 47.9025 211.916 48.0559C211.916 48.4359 212.016 48.7292 212.216 48.9359C212.423 49.1359 212.736 49.2359 213.156 49.2359ZM219.236 61.5959L220.476 58.7559H218.976V55.9159H222.396V58.4959L220.756 61.5959H219.236ZM228.43 58.7559C228.423 58.4492 228.417 58.1759 228.41 57.9359C228.403 57.6959 228.397 57.4792 228.39 57.2859C228.39 57.0859 228.39 56.8925 228.39 56.7059C228.39 56.5192 228.39 56.3259 228.39 56.1259C228.397 55.9259 228.403 55.7025 228.41 55.4559C228.43 54.7692 228.55 54.1425 228.77 53.5759C228.99 53.0025 229.317 52.4825 229.75 52.0159C230.19 51.5492 230.75 51.1292 231.43 50.7559L232.77 50.0159C233.19 49.7825 233.463 49.4859 233.59 49.1259C233.717 48.7592 233.783 48.4425 233.79 48.1759C233.81 47.8159 233.82 47.4525 233.82 47.0859C233.82 46.7192 233.81 46.3559 233.79 45.9959C233.77 45.6759 233.657 45.4292 233.45 45.2559C233.25 45.0825 232.95 44.9959 232.55 44.9959C232.183 44.9959 231.903 45.0825 231.71 45.2559C231.523 45.4292 231.423 45.6759 231.41 45.9959C231.39 46.4559 231.38 46.9159 231.38 47.3759C231.38 47.8359 231.39 48.2959 231.41 48.7559H228.45C228.437 48.5225 228.427 48.2725 228.42 48.0059C228.413 47.7392 228.407 47.4792 228.4 47.2259C228.4 46.9725 228.403 46.7492 228.41 46.5559C228.47 45.1225 228.82 44.0992 229.46 43.4859C230.1 42.8659 231.13 42.5559 232.55 42.5559C233.557 42.5559 234.363 42.6925 234.97 42.9659C235.577 43.2325 236.02 43.6592 236.3 44.2459C236.587 44.8325 236.75 45.6025 236.79 46.5559C236.797 46.6825 236.8 46.8125 236.8 46.9459C236.807 47.0725 236.81 47.2025 236.81 47.3359C236.81 47.4692 236.807 47.6059 236.8 47.7459C236.8 47.8859 236.797 48.0292 236.79 48.1759C236.77 48.8425 236.65 49.4459 236.43 49.9859C236.217 50.5192 235.903 50.9992 235.49 51.4259C235.077 51.8525 234.563 52.2359 233.95 52.5759L232.39 53.4359C232.137 53.5759 231.94 53.7692 231.8 54.0159C231.66 54.2625 231.563 54.5192 231.51 54.7859C231.457 55.0459 231.43 55.2692 231.43 55.4559V56.1159H236.53V58.7559H228.43ZM242.455 58.9559C241.128 58.9559 240.101 58.6092 239.375 57.9159C238.648 57.2159 238.268 56.2225 238.235 54.9359C238.215 54.0359 238.201 53.1125 238.195 52.1659C238.188 51.2192 238.188 50.2725 238.195 49.3259C238.201 48.3792 238.215 47.4559 238.235 46.5559C238.268 45.2625 238.648 44.2725 239.375 43.5859C240.101 42.8992 241.128 42.5559 242.455 42.5559C243.768 42.5559 244.785 42.8992 245.505 43.5859C246.231 44.2725 246.615 45.2625 246.655 46.5559C246.681 47.2359 246.701 47.9292 246.715 48.6359C246.728 49.3425 246.735 50.0525 246.735 50.7659C246.735 51.4725 246.728 52.1759 246.715 52.8759C246.701 53.5759 246.681 54.2625 246.655 54.9359C246.615 56.2225 246.231 57.2159 245.505 57.9159C244.785 58.6092 243.768 58.9559 242.455 58.9559ZM242.455 56.5159C243.215 56.5159 243.615 56.1759 243.655 55.4959C243.701 54.4759 243.731 53.4292 243.745 52.3559C243.765 51.2825 243.765 50.2092 243.745 49.1359C243.731 48.0625 243.701 47.0159 243.655 45.9959C243.635 45.3292 243.235 44.9959 242.455 44.9959C241.661 44.9959 241.255 45.3292 241.235 45.9959C241.208 46.7625 241.185 47.5459 241.165 48.3459C241.151 49.1392 241.145 49.9392 241.145 50.7459C241.145 51.5525 241.151 52.3559 241.165 53.1559C241.185 53.9492 241.208 54.7292 241.235 55.4959C241.255 56.1759 241.661 56.5159 242.455 56.5159ZM248.371 58.7559C248.365 58.4492 248.358 58.1759 248.351 57.9359C248.345 57.6959 248.338 57.4792 248.331 57.2859C248.331 57.0859 248.331 56.8925 248.331 56.7059C248.331 56.5192 248.331 56.3259 248.331 56.1259C248.338 55.9259 248.345 55.7025 248.351 55.4559C248.371 54.7692 248.491 54.1425 248.711 53.5759C248.931 53.0025 249.258 52.4825 249.691 52.0159C250.131 51.5492 250.691 51.1292 251.371 50.7559L252.711 50.0159C253.131 49.7825 253.405 49.4859 253.531 49.1259C253.658 48.7592 253.725 48.4425 253.731 48.1759C253.751 47.8159 253.761 47.4525 253.761 47.0859C253.761 46.7192 253.751 46.3559 253.731 45.9959C253.711 45.6759 253.598 45.4292 253.391 45.2559C253.191 45.0825 252.891 44.9959 252.491 44.9959C252.125 44.9959 251.845 45.0825 251.651 45.2559C251.465 45.4292 251.365 45.6759 251.351 45.9959C251.331 46.4559 251.321 46.9159 251.321 47.3759C251.321 47.8359 251.331 48.2959 251.351 48.7559H248.391C248.378 48.5225 248.368 48.2725 248.361 48.0059C248.355 47.7392 248.348 47.4792 248.341 47.2259C248.341 46.9725 248.345 46.7492 248.351 46.5559C248.411 45.1225 248.761 44.0992 249.401 43.4859C250.041 42.8659 251.071 42.5559 252.491 42.5559C253.498 42.5559 254.305 42.6925 254.911 42.9659C255.518 43.2325 255.961 43.6592 256.241 44.2459C256.528 44.8325 256.691 45.6025 256.731 46.5559C256.738 46.6825 256.741 46.8125 256.741 46.9459C256.748 47.0725 256.751 47.2025 256.751 47.3359C256.751 47.4692 256.748 47.6059 256.741 47.7459C256.741 47.8859 256.738 48.0292 256.731 48.1759C256.711 48.8425 256.591 49.4459 256.371 49.9859C256.158 50.5192 255.845 50.9992 255.431 51.4259C255.018 51.8525 254.505 52.2359 253.891 52.5759L252.331 53.4359C252.078 53.5759 251.881 53.7692 251.741 54.0159C251.601 54.2625 251.505 54.5192 251.451 54.7859C251.398 55.0459 251.371 55.2692 251.371 55.4559V56.1159H256.471V58.7559H248.371ZM262.536 58.9559C261.009 58.9559 259.903 58.6459 259.216 58.0259C258.536 57.4059 258.176 56.3759 258.136 54.9359C258.129 54.6159 258.126 54.3525 258.126 54.1459C258.126 53.9325 258.136 53.7025 258.156 53.4559H261.156C261.136 53.6292 261.123 53.8392 261.116 54.0859C261.109 54.3259 261.106 54.5625 261.106 54.7959C261.113 55.0225 261.123 55.2025 261.136 55.3359C261.176 55.7159 261.299 56.0092 261.506 56.2159C261.719 56.4159 262.036 56.5159 262.456 56.5159C262.876 56.5159 263.193 56.4159 263.406 56.2159C263.626 56.0092 263.749 55.7159 263.776 55.3359C263.829 54.7425 263.859 54.1592 263.866 53.5859C263.873 53.0125 263.849 52.4759 263.796 51.9759C263.769 51.6425 263.653 51.3892 263.446 51.2159C263.239 51.0425 262.949 50.9559 262.576 50.9559C262.303 50.9559 262.066 50.9959 261.866 51.0759C261.666 51.1559 261.509 51.2725 261.396 51.4259C261.283 51.5792 261.223 51.7625 261.216 51.9759H258.376V42.7559H266.516V45.3959H261.376V49.6359H261.816C261.996 49.3159 262.276 49.0425 262.656 48.8159C263.036 48.5892 263.489 48.4759 264.016 48.4759C264.909 48.4759 265.579 48.7859 266.026 49.4059C266.479 50.0259 266.736 50.8625 266.796 51.9159C266.816 52.2625 266.829 52.6159 266.836 52.9759C266.843 53.3292 266.839 53.6759 266.826 54.0159C266.819 54.3492 266.803 54.6559 266.776 54.9359C266.683 55.8959 266.489 56.6725 266.196 57.2659C265.903 57.8525 265.463 58.2825 264.876 58.5559C264.289 58.8225 263.509 58.9559 262.536 58.9559Z"
        fill="#6F31CF" />
</svg>