<svg width="392" height="838" viewBox="0 0 392 838" fill="none" xmlns="http://www.w3.org/2000/svg">
<g clip-path="url(#clip0_858_791)">
<rect width="392" height="838" fill="url(#paint0_linear_858_791)"/>
<path d="M278.431 334.845L243.37 348.975L247.43 311.051L210.047 315.856L223.217 280.144L185.913 275.411L207.4 244.102L172.364 230.188L200.948 205.225L170.393 182.847L204.206 165.908L180.121 136.576L216.978 128.693L200.848 94.1998L238.508 95.9077L231.402 58.3796L267.441 69.5318L269.702 31.3637L301.908 51.2431L313.477 14.9404L339.763 42.2104L359.981 9.92824L378.712 43.0559L406.175 16.8594L416.198 53.6689L449.173 35.1999L449.874 73.3689L486.348 63.7594L477.688 100.956L515.369 100.828L497.886 134.71L534.337 144.14L509.092 172.443L542.187 190.764L510.694 211.832L538.246 237.88L502.617 250.408L522.907 282.6L485.36 285.692L497.051 321.976L459.938 315.508L462.365 353.647L427.962 338.025L420.917 375.588L391.506 351.802L375.49 386.311L352.792 355.944L328.853 385.356L314.269 350.151L283.884 372.675L278.431 334.845Z" fill="url(#paint1_linear_858_791)"/>
<path d="M-35.8715 725.002L-80.2049 742.87L-75.0718 694.916L-122.341 700.992L-105.688 655.835L-152.858 649.85L-125.688 610.261L-169.989 592.668L-133.846 561.102L-172.482 532.807L-129.727 511.387L-160.182 474.299L-113.577 464.33L-133.972 420.716L-86.3524 422.875L-95.3385 375.422L-49.768 389.524L-46.909 341.262L-6.18554 366.398L8.44272 320.495L41.6797 354.977L67.2449 314.157L90.9296 356.046L125.656 322.922L138.33 369.466L180.025 346.112L180.912 394.376L227.031 382.225L216.082 429.258L263.727 429.097L241.62 471.94L287.711 483.864L255.791 519.651L297.637 542.817L257.816 569.457L292.654 602.393L247.603 618.234L273.258 658.94L225.782 662.851L240.564 708.73L193.637 700.551L196.706 748.777L153.204 729.023L144.296 776.521L107.108 746.444L86.8551 790.079L58.1553 751.681L27.8849 788.872L9.44371 744.356L-28.9768 772.837L-35.8715 725.002Z" fill="url(#paint2_linear_858_791)"/>
<path d="M87.3237 52C76.812 70.4825 66.2862 70.4825 55.7746 52C66.2862 70.4682 61.0375 79.7094 40 79.7094C61.0375 79.7094 66.2862 88.9507 55.7746 107.419C66.2862 88.9363 76.812 88.9363 87.3237 107.419C76.812 88.9507 82.0608 79.7094 103.098 79.7094C82.0608 79.7094 76.812 70.4682 87.3237 52Z" fill="white"/>
<path d="M376.324 738C365.812 756.483 355.286 756.483 344.775 738C355.286 756.468 350.037 765.709 329 765.709C350.037 765.709 355.286 774.951 344.775 793.419C355.286 774.936 365.812 774.936 376.324 793.419C365.812 774.951 371.061 765.709 392.098 765.709C371.061 765.709 365.812 756.468 376.324 738Z" fill="white"/>
<path d="M69.75 793C64.9188 801.338 60.0812 801.338 55.25 793C60.0812 801.331 57.6688 805.5 48 805.5C57.6688 805.5 60.0812 809.669 55.25 818C60.0812 809.662 64.9188 809.662 69.75 818C64.9188 809.669 67.3312 805.5 77 805.5C67.3312 805.5 64.9188 801.331 69.75 793Z" fill="white"/>
<path d="M40.75 265C35.9188 273.338 31.0812 273.338 26.25 265C31.0812 273.331 28.6688 277.5 19 277.5C28.6688 277.5 31.0812 281.669 26.25 290C31.0812 281.662 35.9188 281.662 40.75 290C35.9188 281.669 38.3312 277.5 48 277.5C38.3312 277.5 35.9188 273.331 40.75 265Z" fill="white"/>
</g>
<defs>
<linearGradient id="paint0_linear_858_791" x1="196" y1="0" x2="196" y2="838" gradientUnits="userSpaceOnUse">
<stop stop-color="#FFCB01"/>
<stop offset="1" stop-color="#E76EC2"/>
</linearGradient>
<linearGradient id="paint1_linear_858_791" x1="263.627" y1="360.825" x2="452.854" y2="37.3534" gradientUnits="userSpaceOnUse">
<stop stop-color="#FFCB01"/>
<stop offset="1" stop-color="#E76EC2"/>
</linearGradient>
<linearGradient id="paint2_linear_858_791" x1="-54.5908" y1="757.854" x2="184.679" y2="348.835" gradientUnits="userSpaceOnUse">
<stop stop-color="#FFCB01"/>
<stop offset="1" stop-color="#E76EC2"/>
</linearGradient>
<clipPath id="clip0_858_791">
<rect width="392" height="838" fill="white"/>
</clipPath>
</defs>
</svg>
