<svg width="1513" height="874" viewBox="0 0 1513 874" fill="none" xmlns="http://www.w3.org/2000/svg">
<rect width="1513" height="874" fill="url(#paint0_linear_667_841)"/>
<mask id="mask0_667_841" style="mask-type:alpha" maskUnits="userSpaceOnUse" x="0" y="0" width="1513" height="874">
<rect x="1512" y="873.5" width="1511" height="873" transform="rotate(180 1512 873.5)" fill="white" stroke="black"/>
</mask>
<g mask="url(#mask0_667_841)">
<circle cx="748.5" cy="1510" r="933.5" stroke="#FFCC00" stroke-width="3"/>
<circle cx="748.5" cy="1424" r="941.5" stroke="#FFCC00" stroke-width="3"/>
<circle cx="748.5" cy="1424" r="1142.5" stroke="#FFCC00" stroke-width="3"/>
<circle cx="748.5" cy="1424" r="1271.5" stroke="#FFCC00" stroke-width="3"/>
<circle cx="748.5" cy="1424" r="1398.5" stroke="#FFCC00" stroke-width="3"/>
<path d="M35.7118 -268.216C50.8066 -305.45 106.154 -294.38 105.953 -254.329C105.752 -221.724 145.401 -205.22 168.345 -228.567C196.522 -257.146 243.417 -225.749 227.718 -188.918C215.038 -158.728 245.228 -128.538 275.418 -141.218C312.45 -156.917 343.646 -110.022 315.067 -81.845C291.72 -58.9009 308.224 -19.2518 340.829 -19.4531C380.88 -19.6543 391.95 35.6934 354.716 50.7882C324.325 63.0654 324.325 105.935 354.716 118.212C391.95 133.307 380.88 188.654 340.829 188.453C308.224 188.252 291.72 227.901 315.067 250.845C343.646 279.022 312.249 325.917 275.418 310.218C245.228 297.538 215.038 327.728 227.718 357.918C243.417 394.95 196.522 426.146 168.345 397.567C145.401 374.22 105.752 390.724 105.953 423.329C106.154 463.38 50.8066 474.45 35.7118 437.216C23.4347 406.825 -19.4346 406.825 -31.7118 437.216C-46.8066 474.45 -102.154 463.38 -101.953 423.329C-101.752 390.724 -141.401 374.22 -164.345 397.567C-192.522 426.146 -239.417 394.749 -223.718 357.918C-211.038 327.728 -241.228 297.538 -271.418 310.218C-308.45 325.917 -339.646 279.022 -311.067 250.845C-287.72 227.901 -304.224 188.252 -336.829 188.453C-376.88 188.654 -387.95 133.307 -350.716 118.212C-320.325 105.935 -320.325 63.0654 -350.716 50.7882C-387.95 35.6934 -376.88 -19.6543 -336.829 -19.4531C-304.224 -19.2518 -287.72 -58.9009 -311.067 -81.845C-339.646 -110.022 -308.249 -156.917 -271.418 -141.218C-241.228 -128.538 -211.038 -158.728 -223.718 -188.918C-239.417 -225.95 -192.522 -257.146 -164.345 -228.567C-141.401 -205.22 -101.752 -221.724 -101.953 -254.329C-102.154 -294.38 -46.8066 -305.45 -31.7118 -268.216C-19.4346 -237.825 23.4347 -237.825 35.7118 -268.216Z" fill="#FFCC00"/>
<path d="M1546.71 -268.216C1561.81 -305.45 1617.15 -294.38 1616.95 -254.329C1616.75 -221.724 1656.4 -205.22 1679.35 -228.567C1707.52 -257.146 1754.42 -225.749 1738.72 -188.918C1726.04 -158.728 1756.23 -128.538 1786.42 -141.218C1823.45 -156.917 1854.65 -110.022 1826.07 -81.845C1802.72 -58.9009 1819.22 -19.2518 1851.83 -19.4531C1891.88 -19.6543 1902.95 35.6934 1865.72 50.7882C1835.33 63.0654 1835.33 105.935 1865.72 118.212C1902.95 133.307 1891.88 188.654 1851.83 188.453C1819.22 188.252 1802.72 227.901 1826.07 250.845C1854.65 279.022 1823.25 325.917 1786.42 310.218C1756.23 297.538 1726.04 327.728 1738.72 357.918C1754.42 394.95 1707.52 426.146 1679.35 397.567C1656.4 374.22 1616.75 390.724 1616.95 423.329C1617.15 463.38 1561.81 474.45 1546.71 437.216C1534.43 406.825 1491.57 406.825 1479.29 437.216C1464.19 474.45 1408.85 463.38 1409.05 423.329C1409.25 390.724 1369.6 374.22 1346.65 397.567C1318.48 426.146 1271.58 394.749 1287.28 357.918C1299.96 327.728 1269.77 297.538 1239.58 310.218C1202.55 325.917 1171.35 279.022 1199.93 250.845C1223.28 227.901 1206.78 188.252 1174.17 188.453C1134.12 188.654 1123.05 133.307 1160.28 118.212C1190.68 105.935 1190.68 63.0654 1160.28 50.7882C1123.05 35.6934 1134.12 -19.6543 1174.17 -19.4531C1206.78 -19.2518 1223.28 -58.9009 1199.93 -81.845C1171.35 -110.022 1202.75 -156.917 1239.58 -141.218C1269.77 -128.538 1299.96 -158.728 1287.28 -188.918C1271.58 -225.95 1318.48 -257.146 1346.65 -228.567C1369.6 -205.22 1409.25 -221.724 1409.05 -254.329C1408.85 -294.38 1464.19 -305.45 1479.29 -268.216C1491.57 -237.825 1534.43 -237.825 1546.71 -268.216Z" fill="#FFCC00"/>
<circle cx="748.5" cy="1282.39" r="678" fill="#FFCC00"/>
</g>
<path d="M790.661 79.0875C805.957 41.3578 862.041 52.5747 861.837 93.1597C861.633 126.199 901.81 142.922 925.06 119.265C953.612 90.3044 1001.13 122.12 985.224 159.442C972.375 190.033 1002.97 220.625 1033.56 207.776C1071.08 191.869 1102.7 239.388 1073.74 267.94C1050.08 291.19 1066.8 331.367 1099.84 331.163C1140.43 330.959 1151.64 387.043 1113.91 402.339C1083.12 414.78 1083.12 458.22 1113.91 470.661C1151.64 485.957 1140.43 542.041 1099.84 541.837C1066.8 541.633 1050.08 581.81 1073.74 605.06C1102.7 633.612 1070.88 681.131 1033.56 665.224C1002.97 652.375 972.375 682.967 985.224 713.558C1001.13 751.084 953.612 782.696 925.06 753.735C901.81 730.078 861.633 746.801 861.837 779.84C862.041 820.425 805.957 831.642 790.661 793.912C778.22 763.117 734.78 763.117 722.339 793.912C707.043 831.642 650.959 820.425 651.163 779.84C651.367 746.801 611.19 730.078 587.94 753.735C559.388 782.696 511.869 750.88 527.776 713.558C540.625 682.967 510.033 652.375 479.442 665.224C441.916 681.131 410.304 633.612 439.265 605.06C462.922 581.81 446.199 541.633 413.16 541.837C372.575 542.041 361.358 485.957 399.087 470.661C429.883 458.22 429.883 414.78 399.087 402.339C361.358 387.043 372.575 330.959 413.16 331.163C446.199 331.367 462.922 291.19 439.265 267.94C410.304 239.388 442.12 191.869 479.442 207.776C510.033 220.625 540.625 190.033 527.776 159.442C511.869 121.916 559.388 90.3044 587.94 119.265C611.19 142.922 651.367 126.199 651.163 93.1597C650.959 52.5747 707.043 41.3578 722.339 79.0875C734.78 109.883 778.22 109.883 790.661 79.0875Z" fill="url(#paint1_linear_667_841)"/>
<defs>
<linearGradient id="paint0_linear_667_841" x1="756.5" y1="0" x2="756.5" y2="874" gradientUnits="userSpaceOnUse">
<stop stop-color="#FE9539"/>
<stop offset="1" stop-color="#FFCC00"/>
</linearGradient>
<linearGradient id="paint1_linear_667_841" x1="756.5" y1="817" x2="756.5" y2="56" gradientUnits="userSpaceOnUse">
<stop stop-color="#FE9836"/>
<stop offset="1" stop-color="#FFCC01"/>
</linearGradient>
</defs>
</svg>
