<svg xmlns="http://www.w3.org/2000/svg" width="1513" height="874" fill="none" viewBox="0 0 1513 874"><rect width="1513" height="874" fill="url(#paint0_linear_667_841)"/><mask id="mask0_667_841" width="1513" height="874" x="0" y="0" maskUnits="userSpaceOnUse" style="mask-type:alpha"><rect width="1511" height="873" x="1512" y="873.5" fill="#fff" stroke="#000" transform="rotate(180 1512 873.5)"/></mask><g mask="url(#mask0_667_841)"><circle cx="748.5" cy="1510" r="933.5" stroke="#FC0" stroke-width="3"/><circle cx="748.5" cy="1424" r="941.5" stroke="#FC0" stroke-width="3"/><circle cx="748.5" cy="1424" r="1142.5" stroke="#FC0" stroke-width="3"/><circle cx="748.5" cy="1424" r="1271.5" stroke="#FC0" stroke-width="3"/><circle cx="748.5" cy="1424" r="1398.5" stroke="#FC0" stroke-width="3"/><circle cx="748.5" cy="1282.39" r="678" fill="#FC0"/></g><path fill="url(#paint1_linear_667_841)" d="M790.661 79.0875C805.957 41.3578 862.041 52.5747 861.837 93.1597C861.633 126.199 901.81 142.922 925.06 119.265C953.612 90.3044 1001.13 122.12 985.224 159.442C972.375 190.033 1002.97 220.625 1033.56 207.776C1071.08 191.869 1102.7 239.388 1073.74 267.94C1050.08 291.19 1066.8 331.367 1099.84 331.163C1140.43 330.959 1151.64 387.043 1113.91 402.339C1083.12 414.78 1083.12 458.22 1113.91 470.661C1151.64 485.957 1140.43 542.041 1099.84 541.837C1066.8 541.633 1050.08 581.81 1073.74 605.06C1102.7 633.612 1070.88 681.131 1033.56 665.224C1002.97 652.375 972.375 682.967 985.224 713.558C1001.13 751.084 953.612 782.696 925.06 753.735C901.81 730.078 861.633 746.801 861.837 779.84C862.041 820.425 805.957 831.642 790.661 793.912C778.22 763.117 734.78 763.117 722.339 793.912C707.043 831.642 650.959 820.425 651.163 779.84C651.367 746.801 611.19 730.078 587.94 753.735C559.388 782.696 511.869 750.88 527.776 713.558C540.625 682.967 510.033 652.375 479.442 665.224C441.916 681.131 410.304 633.612 439.265 605.06C462.922 581.81 446.199 541.633 413.16 541.837C372.575 542.041 361.358 485.957 399.087 470.661C429.883 458.22 429.883 414.78 399.087 402.339C361.358 387.043 372.575 330.959 413.16 331.163C446.199 331.367 462.922 291.19 439.265 267.94C410.304 239.388 442.12 191.869 479.442 207.776C510.033 220.625 540.625 190.033 527.776 159.442C511.869 121.916 559.388 90.3044 587.94 119.265C611.19 142.922 651.367 126.199 651.163 93.1597C650.959 52.5747 707.043 41.3578 722.339 79.0875C734.78 109.883 778.22 109.883 790.661 79.0875Z"/><defs><linearGradient id="paint0_linear_667_841" x1="756.5" x2="756.5" y1="0" y2="874" gradientUnits="userSpaceOnUse"><stop stop-color="#FE9539"/><stop offset="1" stop-color="#FC0"/></linearGradient><linearGradient id="paint1_linear_667_841" x1="756.5" x2="756.5" y1="817" y2="56" gradientUnits="userSpaceOnUse"><stop stop-color="#FE9836"/><stop offset="1" stop-color="#FFCC01"/></linearGradient></defs></svg>