<svg width="250" height="77" viewBox="0 0 250 77" fill="none" xmlns="http://www.w3.org/2000/svg">
<rect x="1.44531" y="1.46289" width="247" height="74" stroke="#6F31CF" stroke-width="2"/>
<mask id="path-2-inside-1_503_8950" fill="white">
<path d="M2.44531 2.46289H74.4453V74.4629H2.44531V2.46289Z"/>
</mask>
<path d="M2.44531 2.46289H74.4453V74.4629H2.44531V2.46289Z" fill="#180629"/>
<path d="M74.4453 2.46289H72.4453V74.4629H74.4453H76.4453V2.46289H74.4453Z" fill="#6F31CF" mask="url(#path-2-inside-1_503_8950)"/>
<path d="M31.7786 20.1289H28.4453V21.7956H31.7786V20.1289Z" fill="white"/>
<path d="M48.4427 20.1289H45.1094V21.7956H48.4427V20.1289Z" fill="white"/>
<path d="M55.1094 26.7969V25.1302H50.1094V21.7969H48.4427V30.1302H45.1094V21.7969H43.4427V25.1302H33.4427V21.7969H31.776V30.1302H28.4427V21.7969H26.776V25.1302H21.776V26.7969H20.1094V55.1302H21.776V56.7969H55.1094V55.1302H56.776V26.7969H55.1094ZM53.4427 31.7969V36.7969H48.4427V31.7969H53.4427ZM53.4427 45.1302H48.4427V40.1302H53.4427V45.1302ZM53.4427 53.4635H48.4427V48.4635H53.4427V53.4635ZM23.4427 48.4635H28.4427V53.4635H23.4427V48.4635ZM23.4427 40.1302H28.4427V45.1302H23.4427V40.1302ZM45.1094 45.1302H40.1094V40.1302H45.1094V45.1302ZM36.776 45.1302H31.776V40.1302H36.776V45.1302ZM31.776 48.4635H36.776V53.4635H31.776V48.4635ZM40.1094 48.4635H45.1094V53.4635H40.1094V48.4635ZM45.1094 36.7969H40.1094V31.7969H45.1094V36.7969ZM36.776 31.7969V36.7969H31.776V31.7969H36.776ZM28.4427 36.7969H23.4427V31.7969H28.4427V36.7969Z" fill="white"/>
<rect width="173" height="72" transform="translate(74.4453 2.46289)" fill="#180629"/>
<path d="M113.767 49.4629V27.0629H118.387L119.843 34.1749L121.565 46.7749H122.251L121.691 35.8269L121.467 27.0629H124.407V49.4629H119.577L118.037 41.7769L116.665 29.7369H115.937L116.455 40.9789L116.693 49.4629H113.767ZM131.551 49.7009C130.431 49.7009 129.535 49.5469 128.863 49.2389C128.201 48.9309 127.715 48.4362 127.407 47.7549C127.099 47.0736 126.913 46.1776 126.847 45.0669C126.829 44.5349 126.81 43.9236 126.791 43.2329C126.782 42.5422 126.777 41.8282 126.777 41.0909C126.777 40.3536 126.782 39.6349 126.791 38.9349C126.81 38.2349 126.829 37.6049 126.847 37.0449C126.913 35.9436 127.099 35.0569 127.407 34.3849C127.715 33.7036 128.201 33.2089 128.863 32.9009C129.535 32.5836 130.431 32.4249 131.551 32.4249C132.69 32.4249 133.586 32.5836 134.239 32.9009C134.902 33.2089 135.387 33.7036 135.695 34.3849C136.003 35.0569 136.185 35.9436 136.241 37.0449C136.26 37.5862 136.274 38.2022 136.283 38.8929C136.293 39.5742 136.297 40.2882 136.297 41.0349C136.297 41.7722 136.293 42.4909 136.283 43.1909C136.274 43.8816 136.26 44.5069 136.241 45.0669C136.185 46.1682 136.003 47.0596 135.695 47.7409C135.387 48.4222 134.902 48.9216 134.239 49.2389C133.586 49.5469 132.69 49.7009 131.551 49.7009ZM131.551 47.3909C132.139 47.3909 132.559 47.2649 132.811 47.0129C133.063 46.7609 133.194 46.3549 133.203 45.7949C133.231 44.9736 133.25 44.1709 133.259 43.3869C133.278 42.6029 133.287 41.8236 133.287 41.0489C133.287 40.2742 133.278 39.4996 133.259 38.7249C133.25 37.9409 133.231 37.1382 133.203 36.3169C133.194 35.7662 133.063 35.3649 132.811 35.1129C132.569 34.8609 132.149 34.7349 131.551 34.7349C130.973 34.7349 130.553 34.8609 130.291 35.1129C130.03 35.3649 129.89 35.7662 129.871 36.3169C129.853 37.1382 129.834 37.9409 129.815 38.7249C129.806 39.5089 129.801 40.2882 129.801 41.0629C129.801 41.8376 129.806 42.6169 129.815 43.4009C129.834 44.1849 129.853 44.9829 129.871 45.7949C129.89 46.3549 130.03 46.7609 130.291 47.0129C130.553 47.2649 130.973 47.3909 131.551 47.3909ZM140.076 49.4629L137.794 32.6629H140.874L141.798 41.1189L142.204 47.1949H143.072L143.492 41.1189L144.458 32.6629H147.538L145.2 49.4629H140.076ZM153.712 49.7009C152.125 49.7009 150.972 49.3742 150.254 48.7209C149.544 48.0676 149.148 46.9942 149.064 45.5009C149.045 44.9689 149.031 44.3202 149.022 43.5549C149.012 42.7802 149.008 41.9729 149.008 41.1329C149.008 40.2836 149.012 39.4669 149.022 38.6829C149.031 37.8989 149.045 37.2269 149.064 36.6669C149.166 35.1456 149.572 34.0582 150.282 33.4049C150.991 32.7516 152.125 32.4249 153.684 32.4249C155.214 32.4249 156.325 32.7469 157.016 33.3909C157.716 34.0256 158.103 35.0756 158.178 36.5409C158.187 36.7929 158.192 37.1896 158.192 37.7309C158.201 38.2629 158.201 38.8742 158.192 39.5649C158.192 40.2462 158.178 40.9276 158.15 41.6089H152.046C152.046 42.2902 152.05 42.9809 152.06 43.6809C152.078 44.3716 152.092 45.0809 152.102 45.8089C152.12 46.3969 152.251 46.8076 152.494 47.0409C152.746 47.2742 153.147 47.3909 153.698 47.3909C154.22 47.3909 154.594 47.2742 154.818 47.0409C155.042 46.8076 155.168 46.3969 155.196 45.8089C155.214 45.5289 155.224 45.1742 155.224 44.7449C155.224 44.3156 155.214 43.8396 155.196 43.3169H158.15C158.168 43.5689 158.182 43.9142 158.192 44.3529C158.201 44.7822 158.196 45.1649 158.178 45.5009C158.103 46.9942 157.725 48.0676 157.044 48.7209C156.372 49.3742 155.261 49.7009 153.712 49.7009ZM152.046 39.4389H155.224C155.233 38.9816 155.238 38.5336 155.238 38.0949C155.238 37.6562 155.233 37.2736 155.224 36.9469C155.214 36.6109 155.205 36.3682 155.196 36.2189C155.168 35.6869 155.037 35.3089 154.804 35.0849C154.58 34.8516 154.206 34.7349 153.684 34.7349C153.133 34.7349 152.736 34.8516 152.494 35.0849C152.251 35.3089 152.12 35.6869 152.102 36.2189C152.092 36.7882 152.083 37.3389 152.074 37.8709C152.064 38.4029 152.055 38.9256 152.046 39.4389ZM160.485 49.4629V32.6629H163.509V34.3149H164.055C164.391 33.6989 164.755 33.2322 165.147 32.9149C165.548 32.5882 166.131 32.4249 166.897 32.4249C167.653 32.4249 168.273 32.5882 168.759 32.9149C169.244 33.2416 169.594 33.7736 169.809 34.5109H170.327C170.663 33.8856 171.059 33.3816 171.517 32.9989C171.974 32.6162 172.59 32.4249 173.365 32.4249C174.382 32.4249 175.161 32.7376 175.703 33.3629C176.253 33.9789 176.529 35.0102 176.529 36.4569V49.4629H173.505V36.2049C173.505 35.6729 173.393 35.2856 173.169 35.0429C172.945 34.8002 172.599 34.6789 172.133 34.6789C171.703 34.6789 171.297 34.8189 170.915 35.0989C170.541 35.3696 170.261 35.7336 170.075 36.1909V49.4629H167.051V36.2049C167.041 35.6729 166.925 35.2856 166.701 35.0429C166.477 34.8002 166.131 34.6789 165.665 34.6789C165.217 34.6789 164.787 34.8002 164.377 35.0429C163.975 35.2856 163.686 35.6496 163.509 36.1349V49.4629H160.485ZM185.363 49.7009C184.598 49.7009 184.019 49.5422 183.627 49.2249C183.235 48.8982 182.871 48.4269 182.535 47.8109H182.157V49.4629H179.133V27.0629H182.157V34.3149H182.717C183.053 33.6989 183.417 33.2322 183.809 32.9149C184.21 32.5882 184.789 32.4249 185.545 32.4249C186.572 32.4249 187.337 32.7376 187.841 33.3629C188.354 33.9789 188.639 35.0102 188.695 36.4569C188.714 37.1196 188.728 37.8522 188.737 38.6549C188.756 39.4576 188.765 40.2789 188.765 41.1189C188.765 41.9589 188.756 42.7756 188.737 43.5689C188.728 44.3529 188.714 45.0529 188.695 45.6689C188.639 47.1062 188.322 48.1376 187.743 48.7629C187.174 49.3882 186.38 49.7009 185.363 49.7009ZM184.313 47.4469C184.78 47.4469 185.116 47.3256 185.321 47.0829C185.536 46.8402 185.652 46.4529 185.671 45.9209C185.708 45.2302 185.732 44.4882 185.741 43.6949C185.76 42.8922 185.769 42.0662 185.769 41.2169C185.769 40.3582 185.76 39.5042 185.741 38.6549C185.732 37.8056 185.708 36.9889 185.671 36.2049C185.652 35.6729 185.536 35.2856 185.321 35.0429C185.116 34.8002 184.78 34.6789 184.313 34.6789C183.865 34.6789 183.436 34.8002 183.025 35.0429C182.624 35.2856 182.334 35.6496 182.157 36.1349V45.9909C182.334 46.4669 182.624 46.8309 183.025 47.0829C183.436 47.3256 183.865 47.4469 184.313 47.4469ZM195.63 49.7009C194.043 49.7009 192.89 49.3742 192.172 48.7209C191.462 48.0676 191.066 46.9942 190.982 45.5009C190.963 44.9689 190.949 44.3202 190.94 43.5549C190.93 42.7802 190.926 41.9729 190.926 41.1329C190.926 40.2836 190.93 39.4669 190.94 38.6829C190.949 37.8989 190.963 37.2269 190.982 36.6669C191.084 35.1456 191.49 34.0582 192.2 33.4049C192.909 32.7516 194.043 32.4249 195.602 32.4249C197.132 32.4249 198.243 32.7469 198.934 33.3909C199.634 34.0256 200.021 35.0756 200.096 36.5409C200.105 36.7929 200.11 37.1896 200.11 37.7309C200.119 38.2629 200.119 38.8742 200.11 39.5649C200.11 40.2462 200.096 40.9276 200.068 41.6089H193.964C193.964 42.2902 193.968 42.9809 193.978 43.6809C193.996 44.3716 194.01 45.0809 194.02 45.8089C194.038 46.3969 194.169 46.8076 194.412 47.0409C194.664 47.2742 195.065 47.3909 195.616 47.3909C196.138 47.3909 196.512 47.2742 196.736 47.0409C196.96 46.8076 197.086 46.3969 197.114 45.8089C197.132 45.5289 197.142 45.1742 197.142 44.7449C197.142 44.3156 197.132 43.8396 197.114 43.3169H200.068C200.086 43.5689 200.1 43.9142 200.11 44.3529C200.119 44.7822 200.114 45.1649 200.096 45.5009C200.021 46.9942 199.643 48.0676 198.962 48.7209C198.29 49.3742 197.179 49.7009 195.63 49.7009ZM193.964 39.4389H197.142C197.151 38.9816 197.156 38.5336 197.156 38.0949C197.156 37.6562 197.151 37.2736 197.142 36.9469C197.132 36.6109 197.123 36.3682 197.114 36.2189C197.086 35.6869 196.955 35.3089 196.722 35.0849C196.498 34.8516 196.124 34.7349 195.602 34.7349C195.051 34.7349 194.654 34.8516 194.412 35.0849C194.169 35.3089 194.038 35.6869 194.02 36.2189C194.01 36.7882 194.001 37.3389 193.992 37.8709C193.982 38.4029 193.973 38.9256 193.964 39.4389ZM202.403 49.4629V32.6629H205.427V34.5109H205.987C206.108 33.7922 206.351 33.2929 206.715 33.0129C207.088 32.7329 207.578 32.5929 208.185 32.5929C208.381 32.5929 208.572 32.5976 208.759 32.6069C208.955 32.6162 209.109 32.6256 209.221 32.6349V34.9869H208.213C207.289 34.9869 206.621 35.1409 206.211 35.4489C205.809 35.7569 205.548 36.2142 205.427 36.8209V49.4629H202.403Z" fill="white"/>
</svg>
