<svg width="250" height="77" viewBox="0 0 250 77" fill="none" xmlns="http://www.w3.org/2000/svg">
    <rect x="1.44531" y="1.46289" width="247" height="74" stroke="#6F31CF" stroke-width="2" />
    <mask id="path-2-inside-1_503_8950" fill="white">
        <path d="M2.44531 2.46289H74.4453V74.4629H2.44531V2.46289Z" />
    </mask>
    <path d="M2.44531 2.46289H74.4453V74.4629H2.44531V2.46289Z" fill="#180629" />
    <path d="M74.4453 2.46289H72.4453V74.4629H74.4453H76.4453V2.46289H74.4453Z" fill="#6F31CF"
        mask="url(#path-2-inside-1_503_8950)" />
    <path d="M31.7786 20.1289H28.4453V21.7956H31.7786V20.1289Z" fill="white" />
    <path d="M48.4427 20.1289H45.1094V21.7956H48.4427V20.1289Z" fill="white" />
    <path
        d="M55.1094 26.7969V25.1302H50.1094V21.7969H48.4427V30.1302H45.1094V21.7969H43.4427V25.1302H33.4427V21.7969H31.776V30.1302H28.4427V21.7969H26.776V25.1302H21.776V26.7969H20.1094V55.1302H21.776V56.7969H55.1094V55.1302H56.776V26.7969H55.1094ZM53.4427 31.7969V36.7969H48.4427V31.7969H53.4427ZM53.4427 45.1302H48.4427V40.1302H53.4427V45.1302ZM53.4427 53.4635H48.4427V48.4635H53.4427V53.4635ZM23.4427 48.4635H28.4427V53.4635H23.4427V48.4635ZM23.4427 40.1302H28.4427V45.1302H23.4427V40.1302ZM45.1094 45.1302H40.1094V40.1302H45.1094V45.1302ZM36.776 45.1302H31.776V40.1302H36.776V45.1302ZM31.776 48.4635H36.776V53.4635H31.776V48.4635ZM40.1094 48.4635H45.1094V53.4635H40.1094V48.4635ZM45.1094 36.7969H40.1094V31.7969H45.1094V36.7969ZM36.776 31.7969V36.7969H31.776V31.7969H36.776ZM28.4427 36.7969H23.4427V31.7969H28.4427V36.7969Z"
        fill="white" />
    <rect width="173" height="72" transform="translate(74.4453 2.46289)" fill="#180629" />
    <path
        d="M90.429 49.4629V27.0629H95.049L96.505 34.1749L98.227 46.7749H98.913L98.353 35.8269L98.129 27.0629H101.069V49.4629H96.239L94.699 41.7769L93.327 29.7369H92.599L93.117 40.9789L93.355 49.4629H90.429ZM108.213 49.7009C107.093 49.7009 106.197 49.5469 105.525 49.2389C104.863 48.9309 104.377 48.4362 104.069 47.7549C103.761 47.0736 103.575 46.1776 103.509 45.0669C103.491 44.5349 103.472 43.9236 103.453 43.2329C103.444 42.5422 103.439 41.8282 103.439 41.0909C103.439 40.3536 103.444 39.6349 103.453 38.9349C103.472 38.2349 103.491 37.6049 103.509 37.0449C103.575 35.9436 103.761 35.0569 104.069 34.3849C104.377 33.7036 104.863 33.2089 105.525 32.9009C106.197 32.5836 107.093 32.4249 108.213 32.4249C109.352 32.4249 110.248 32.5836 110.901 32.9009C111.564 33.2089 112.049 33.7036 112.357 34.3849C112.665 35.0569 112.847 35.9436 112.903 37.0449C112.922 37.5862 112.936 38.2022 112.945 38.8929C112.955 39.5742 112.959 40.2882 112.959 41.0349C112.959 41.7722 112.955 42.4909 112.945 43.1909C112.936 43.8816 112.922 44.5069 112.903 45.0669C112.847 46.1682 112.665 47.0596 112.357 47.7409C112.049 48.4222 111.564 48.9216 110.901 49.2389C110.248 49.5469 109.352 49.7009 108.213 49.7009ZM108.213 47.3909C108.801 47.3909 109.221 47.2649 109.473 47.0129C109.725 46.7609 109.856 46.3549 109.865 45.7949C109.893 44.9736 109.912 44.1709 109.921 43.3869C109.94 42.6029 109.949 41.8236 109.949 41.0489C109.949 40.2742 109.94 39.4996 109.921 38.7249C109.912 37.9409 109.893 37.1382 109.865 36.3169C109.856 35.7662 109.725 35.3649 109.473 35.1129C109.231 34.8609 108.811 34.7349 108.213 34.7349C107.635 34.7349 107.215 34.8609 106.953 35.1129C106.692 35.3649 106.552 35.7662 106.533 36.3169C106.515 37.1382 106.496 37.9409 106.477 38.7249C106.468 39.5089 106.463 40.2882 106.463 41.0629C106.463 41.8376 106.468 42.6169 106.477 43.4009C106.496 44.1849 106.515 44.9829 106.533 45.7949C106.552 46.3549 106.692 46.7609 106.953 47.0129C107.215 47.2649 107.635 47.3909 108.213 47.3909ZM116.738 49.4629L114.456 32.6629H117.536L118.46 41.1189L118.866 47.1949H119.734L120.154 41.1189L121.12 32.6629H124.2L121.862 49.4629H116.738ZM132.329 49.4629V29.9329H131.139L131.055 28.8129L132.959 27.0629H135.353V49.4629H132.329ZM137.49 40.4749V37.7869H146.492V40.4749H137.49ZM153.334 49.7009C151.607 49.7009 150.356 49.3416 149.582 48.6229C148.807 47.8949 148.396 46.7002 148.35 45.0389C148.34 44.6749 148.331 44.3389 148.322 44.0309C148.322 43.7229 148.322 43.4009 148.322 43.0649C148.331 42.7289 148.34 42.3322 148.35 41.8749H151.374V45.4169C151.374 46.0142 151.532 46.4622 151.85 46.7609C152.167 47.0502 152.638 47.1949 153.264 47.1949C153.88 47.1949 154.337 47.0502 154.636 46.7609C154.944 46.4622 155.102 46.0142 155.112 45.4169C155.14 44.7449 155.154 44.0262 155.154 43.2609C155.154 42.4956 155.14 41.7956 155.112 41.1609C155.084 40.5169 154.93 40.0036 154.65 39.6209C154.37 39.2382 153.824 39.0562 153.012 39.0749L150.912 39.0889L150.814 36.5409L154.622 29.7509H148.518V27.0629H158.094L158.052 29.6249L154.118 36.4429C155.49 36.5456 156.484 36.9656 157.1 37.7029C157.725 38.4309 158.07 39.5742 158.136 41.1329C158.154 41.5342 158.164 41.9122 158.164 42.2669C158.173 42.6216 158.178 42.9576 158.178 43.2749C158.178 43.5922 158.173 43.9002 158.164 44.1989C158.164 44.4882 158.154 44.7682 158.136 45.0389C158.07 46.7002 157.664 47.8949 156.918 48.6229C156.18 49.3416 154.986 49.7009 153.334 49.7009ZM165.71 49.7009C164.189 49.7009 163.018 49.2996 162.196 48.4969C161.375 47.6942 160.946 46.5509 160.908 45.0669C160.89 43.6016 160.876 42.0989 160.866 40.5589C160.857 39.0189 160.857 37.4789 160.866 35.9389C160.876 34.3989 160.89 32.9009 160.908 31.4449C160.946 29.9516 161.375 28.8082 162.196 28.0149C163.018 27.2216 164.189 26.8249 165.71 26.8249C167.213 26.8249 168.375 27.2216 169.196 28.0149C170.018 28.8082 170.447 29.9516 170.484 31.4449C170.512 32.5462 170.536 33.6709 170.554 34.8189C170.573 35.9669 170.582 37.1196 170.582 38.2769C170.582 39.4342 170.573 40.5822 170.554 41.7209C170.536 42.8596 170.512 43.9749 170.484 45.0669C170.447 46.5509 170.018 47.6942 169.196 48.4969C168.375 49.2996 167.213 49.7009 165.71 49.7009ZM165.71 47.1949C166.83 47.1949 167.414 46.6629 167.46 45.5989C167.516 43.9096 167.549 42.2156 167.558 40.5169C167.577 38.8182 167.577 37.1569 167.558 35.5329C167.549 33.9089 167.516 32.3689 167.46 30.9129C167.432 29.8489 166.849 29.3169 165.71 29.3169C164.562 29.3169 163.974 29.8489 163.946 30.9129C163.909 32.1636 163.881 33.4236 163.862 34.6929C163.853 35.9529 163.848 37.2082 163.848 38.4589C163.848 39.7096 163.853 40.9369 163.862 42.1409C163.881 43.3356 163.909 44.4882 163.946 45.5989C163.974 46.6629 164.562 47.1949 165.71 47.1949ZM173.563 52.8789L174.963 49.4629H173.073V46.2149H177.049V49.1549L175.229 52.8789H173.563ZM185.601 49.4629C185.591 49.0896 185.582 48.7629 185.573 48.4829C185.573 48.2029 185.568 47.9462 185.559 47.7129C185.559 47.4796 185.559 47.2416 185.559 46.9989C185.559 46.7562 185.559 46.4809 185.559 46.1729C185.559 45.8649 185.563 45.5009 185.573 45.0809C185.601 43.9516 185.755 42.9762 186.035 42.1549C186.324 41.3336 186.73 40.6242 187.253 40.0269C187.775 39.4296 188.41 38.9022 189.157 38.4449L190.711 37.4649C191.289 37.0542 191.663 36.5922 191.831 36.0789C192.008 35.5562 192.106 35.0522 192.125 34.5669C192.162 33.9602 192.181 33.3536 192.181 32.7469C192.181 32.1402 192.162 31.5336 192.125 30.9269C192.097 30.3856 191.938 29.9842 191.649 29.7229C191.359 29.4522 190.907 29.3169 190.291 29.3169C189.721 29.3169 189.297 29.4522 189.017 29.7229C188.746 29.9842 188.601 30.3856 188.583 30.9269C188.564 31.6269 188.555 32.3316 188.555 33.0409C188.555 33.7409 188.569 34.4409 188.597 35.1409H185.601C185.591 34.7209 185.577 34.2916 185.559 33.8529C185.549 33.4142 185.545 32.9896 185.545 32.5789C185.545 32.1682 185.549 31.7949 185.559 31.4589C185.624 29.8069 186.021 28.6216 186.749 27.9029C187.486 27.1842 188.671 26.8249 190.305 26.8249C191.453 26.8249 192.372 26.9836 193.063 27.3009C193.763 27.6089 194.271 28.1036 194.589 28.7849C194.915 29.4569 195.102 30.3436 195.149 31.4449C195.158 31.6782 195.167 31.9302 195.177 32.2009C195.186 32.4622 195.191 32.7329 195.191 33.0129C195.191 33.2836 195.186 33.5542 195.177 33.8249C195.177 34.0862 195.172 34.3336 195.163 34.5669C195.125 35.4629 194.976 36.2469 194.715 36.9189C194.463 37.5816 194.094 38.1742 193.609 38.6969C193.133 39.2196 192.54 39.7096 191.831 40.1669L190.095 41.2449C189.74 41.4876 189.455 41.8189 189.241 42.2389C189.026 42.6589 188.867 43.1209 188.765 43.6249C188.671 44.1196 188.625 44.6049 188.625 45.0809V46.7749H194.953V49.4629H185.601ZM202.242 49.7009C200.72 49.7009 199.549 49.2996 198.728 48.4969C197.906 47.6942 197.477 46.5509 197.44 45.0669C197.421 43.6016 197.407 42.0989 197.398 40.5589C197.388 39.0189 197.388 37.4789 197.398 35.9389C197.407 34.3989 197.421 32.9009 197.44 31.4449C197.477 29.9516 197.906 28.8082 198.728 28.0149C199.549 27.2216 200.72 26.8249 202.242 26.8249C203.744 26.8249 204.906 27.2216 205.728 28.0149C206.549 28.8082 206.978 29.9516 207.016 31.4449C207.044 32.5462 207.067 33.6709 207.086 34.8189C207.104 35.9669 207.114 37.1196 207.114 38.2769C207.114 39.4342 207.104 40.5822 207.086 41.7209C207.067 42.8596 207.044 43.9749 207.016 45.0669C206.978 46.5509 206.549 47.6942 205.728 48.4969C204.906 49.2996 203.744 49.7009 202.242 49.7009ZM202.242 47.1949C203.362 47.1949 203.945 46.6629 203.992 45.5989C204.048 43.9096 204.08 42.2156 204.09 40.5169C204.108 38.8182 204.108 37.1569 204.09 35.5329C204.08 33.9089 204.048 32.3689 203.992 30.9129C203.964 29.8489 203.38 29.3169 202.242 29.3169C201.094 29.3169 200.506 29.8489 200.478 30.9129C200.44 32.1636 200.412 33.4236 200.394 34.6929C200.384 35.9529 200.38 37.2082 200.38 38.4589C200.38 39.7096 200.384 40.9369 200.394 42.1409C200.412 43.3356 200.44 44.4882 200.478 45.5989C200.506 46.6629 201.094 47.1949 202.242 47.1949ZM209.772 49.4629C209.763 49.0896 209.754 48.7629 209.744 48.4829C209.744 48.2029 209.74 47.9462 209.73 47.7129C209.73 47.4796 209.73 47.2416 209.73 46.9989C209.73 46.7562 209.73 46.4809 209.73 46.1729C209.73 45.8649 209.735 45.5009 209.744 45.0809C209.772 43.9516 209.926 42.9762 210.206 42.1549C210.496 41.3336 210.902 40.6242 211.424 40.0269C211.947 39.4296 212.582 38.9022 213.328 38.4449L214.882 37.4649C215.461 37.0542 215.834 36.5922 216.002 36.0789C216.18 35.5562 216.278 35.0522 216.296 34.5669C216.334 33.9602 216.352 33.3536 216.352 32.7469C216.352 32.1402 216.334 31.5336 216.296 30.9269C216.268 30.3856 216.11 29.9842 215.82 29.7229C215.531 29.4522 215.078 29.3169 214.462 29.3169C213.893 29.3169 213.468 29.4522 213.188 29.7229C212.918 29.9842 212.773 30.3856 212.754 30.9269C212.736 31.6269 212.726 32.3316 212.726 33.0409C212.726 33.7409 212.74 34.4409 212.768 35.1409H209.772C209.763 34.7209 209.749 34.2916 209.73 33.8529C209.721 33.4142 209.716 32.9896 209.716 32.5789C209.716 32.1682 209.721 31.7949 209.73 31.4589C209.796 29.8069 210.192 28.6216 210.92 27.9029C211.658 27.1842 212.843 26.8249 214.476 26.8249C215.624 26.8249 216.544 26.9836 217.234 27.3009C217.934 27.6089 218.443 28.1036 218.76 28.7849C219.087 29.4569 219.274 30.3436 219.32 31.4449C219.33 31.6782 219.339 31.9302 219.348 32.2009C219.358 32.4622 219.362 32.7329 219.362 33.0129C219.362 33.2836 219.358 33.5542 219.348 33.8249C219.348 34.0862 219.344 34.3336 219.334 34.5669C219.297 35.4629 219.148 36.2469 218.886 36.9189C218.634 37.5816 218.266 38.1742 217.78 38.6969C217.304 39.2196 216.712 39.7096 216.002 40.1669L214.266 41.2449C213.912 41.4876 213.627 41.8189 213.412 42.2389C213.198 42.6589 213.039 43.1209 212.936 43.6249C212.843 44.1196 212.796 44.6049 212.796 45.0809V46.7749H219.124V49.4629H209.772ZM226.568 49.7009C224.841 49.7009 223.59 49.3416 222.816 48.6229C222.041 47.8949 221.63 46.7002 221.584 45.0389C221.565 44.4416 221.556 43.9002 221.556 43.4149C221.556 42.9202 221.57 42.4069 221.598 41.8749H224.622C224.594 42.2389 224.575 42.6356 224.566 43.0649C224.566 43.4849 224.566 43.9049 224.566 44.3249C224.575 44.7356 224.589 45.0996 224.608 45.4169C224.654 46.0142 224.822 46.4622 225.112 46.7609C225.41 47.0502 225.868 47.1949 226.484 47.1949C227.1 47.1949 227.552 47.0502 227.842 46.7609C228.131 46.4622 228.294 46.0142 228.332 45.4169C228.406 44.4089 228.444 43.4336 228.444 42.4909C228.453 41.5389 228.425 40.5822 228.36 39.6209C228.332 39.0702 228.178 38.6642 227.898 38.4029C227.618 38.1322 227.207 37.9969 226.666 37.9969C226.274 37.9969 225.938 38.0669 225.658 38.2069C225.378 38.3376 225.158 38.5242 225 38.7669C224.841 39.0096 224.757 39.3036 224.748 39.6489H221.864V27.0629H231.132V29.7509H224.888V36.8629H225.42C225.625 36.4709 225.952 36.1396 226.4 35.8689C226.857 35.5982 227.398 35.4629 228.024 35.4629C229.125 35.4629 229.946 35.8269 230.488 36.5549C231.029 37.2736 231.332 38.2769 231.398 39.5649C231.426 40.2276 231.44 40.8716 231.44 41.4969C231.449 42.1129 231.444 42.7196 231.426 43.3169C231.416 43.9049 231.398 44.4789 231.37 45.0389C231.276 46.1496 231.062 47.0502 230.726 47.7409C230.39 48.4222 229.886 48.9216 229.214 49.2389C228.551 49.5469 227.669 49.7009 226.568 49.7009Z"
        fill="white" />
</svg>