<svg width="250" height="77" viewBox="0 0 250 77" fill="none" xmlns="http://www.w3.org/2000/svg">
<rect x="1.44531" y="1.46289" width="247" height="74" stroke="#6F31CF" stroke-width="2"/>
<mask id="path-2-inside-1_503_8968" fill="white">
<path d="M2.44531 2.46289H74.4453V74.4629H2.44531V2.46289Z"/>
</mask>
<path d="M2.44531 2.46289H74.4453V74.4629H2.44531V2.46289Z" fill="#180629"/>
<path d="M74.4453 2.46289H72.4453V74.4629H74.4453H76.4453V2.46289H74.4453Z" fill="#6F31CF" mask="url(#path-2-inside-1_503_8968)"/>
<path d="M28.4453 28.4629H24.4453V26.4629H22.4453V22.4629H24.4453V20.4629H28.4453V22.4629H30.4453V26.4629H28.4453V28.4629Z" fill="white"/>
<path d="M24.4453 36.4629H26.4453V42.4629H24.4453V44.4629H18.4453V42.4629H16.4453V36.4629H18.4453V34.4629H24.4453V36.4629Z" fill="white"/>
<path d="M34.4453 30.4629H32.4453V32.4629H34.4453V30.4629Z" fill="white"/>
<path d="M46.4453 44.4629H44.4453V46.4629H46.4453V44.4629Z" fill="white"/>
<path d="M50.4453 30.4629H48.4453V32.4629H50.4453V30.4629Z" fill="white"/>
<path d="M32.4453 28.4629H30.4453V30.4629H32.4453V28.4629Z" fill="white"/>
<path d="M30.4453 38.4629H28.4453V40.4629H30.4453V38.4629Z" fill="white"/>
<path d="M46.4453 42.4629V36.4629H44.4453V34.4629H42.4453V32.4629H36.4453V34.4629H34.4453V36.4629H32.4453V42.4629H34.4453V44.4629H36.4453V46.4629H42.4453V44.4629H44.4453V42.4629H46.4453ZM36.4453 42.4629V36.4629H42.4453V42.4629H36.4453Z" fill="white"/>
<path d="M48.4453 32.4629H46.4453V34.4629H48.4453V32.4629Z" fill="white"/>
<path d="M48.4453 46.4629H46.4453V48.4629H48.4453V46.4629Z" fill="white"/>
<path d="M56.4453 50.4629H58.4453V56.4629H56.4453V58.4629H50.4453V56.4629H48.4453V50.4629H50.4453V48.4629H56.4453V50.4629Z" fill="white"/>
<path d="M58.4453 24.4629V28.4629H56.4453V30.4629H52.4453V28.4629H50.4453V24.4629H52.4453V22.4629H56.4453V24.4629H58.4453Z" fill="white"/>
<rect width="173" height="72" transform="translate(74.4453 2.46289)" fill="#180629"/>
<path d="M112.66 49.7009C110.98 49.7009 109.767 49.3462 109.02 48.6369C108.283 47.9182 107.9 46.7282 107.872 45.0669C107.844 43.9469 107.825 42.8176 107.816 41.6789C107.807 40.5402 107.802 39.4016 107.802 38.2629C107.802 37.1149 107.807 35.9762 107.816 34.8469C107.825 33.7082 107.844 32.5742 107.872 31.4449C107.9 29.7929 108.283 28.6122 109.02 27.9029C109.767 27.1842 110.98 26.8249 112.66 26.8249C114.34 26.8249 115.544 27.1842 116.272 27.9029C117.009 28.6122 117.397 29.7929 117.434 31.4449C117.471 32.5836 117.495 33.7222 117.504 34.8609C117.523 35.9996 117.532 37.1382 117.532 38.2769C117.532 39.4156 117.523 40.5542 117.504 41.6929C117.495 42.8222 117.471 43.9469 117.434 45.0669C117.397 46.7282 117.009 47.9182 116.272 48.6369C115.544 49.3462 114.34 49.7009 112.66 49.7009ZM112.66 47.1949C113.257 47.1949 113.696 47.0689 113.976 46.8169C114.256 46.5556 114.401 46.1496 114.41 45.5989C114.457 44.4416 114.485 43.2422 114.494 42.0009C114.513 40.7502 114.522 39.4902 114.522 38.2209C114.522 36.9516 114.513 35.7009 114.494 34.4689C114.475 33.2369 114.447 32.0516 114.41 30.9129C114.401 30.3622 114.251 29.9609 113.962 29.7089C113.682 29.4476 113.248 29.3169 112.66 29.3169C112.072 29.3169 111.633 29.4476 111.344 29.7089C111.064 29.9609 110.915 30.3622 110.896 30.9129C110.859 32.0516 110.826 33.2369 110.798 34.4689C110.779 35.7009 110.77 36.9516 110.77 38.2209C110.779 39.4902 110.793 40.7502 110.812 42.0009C110.831 43.2422 110.859 44.4416 110.896 45.5989C110.915 46.1496 111.064 46.5556 111.344 46.8169C111.633 47.0689 112.072 47.1949 112.66 47.1949ZM119.989 55.0629V32.6629H123.013V34.3149H123.489C123.815 33.6989 124.175 33.2322 124.567 32.9149C124.959 32.5882 125.537 32.4249 126.303 32.4249C127.329 32.4249 128.113 32.7376 128.655 33.3629C129.196 33.9789 129.495 35.0102 129.551 36.4569C129.569 36.9889 129.583 37.6562 129.593 38.4589C129.611 39.2522 129.621 40.0922 129.621 40.9789C129.621 41.8562 129.611 42.7102 129.593 43.5409C129.583 44.3622 129.569 45.0716 129.551 45.6689C129.495 47.1062 129.168 48.1376 128.571 48.7629C127.983 49.3882 127.175 49.7009 126.149 49.7009C125.561 49.7009 125.061 49.5562 124.651 49.2669C124.24 48.9682 123.853 48.4829 123.489 47.8109H123.013V55.0629H119.989ZM124.973 47.4469C125.449 47.4469 125.822 47.3256 126.093 47.0829C126.363 46.8402 126.508 46.4529 126.527 45.9209C126.564 45.1276 126.587 44.3156 126.597 43.4849C126.615 42.6542 126.625 41.8189 126.625 40.9789C126.625 40.1296 126.615 39.3036 126.597 38.5009C126.578 37.6889 126.555 36.9236 126.527 36.2049C126.508 35.6729 126.391 35.2856 126.177 35.0429C125.971 34.8002 125.635 34.6789 125.169 34.6789C124.721 34.6789 124.291 34.8002 123.881 35.0429C123.479 35.2856 123.19 35.6496 123.013 36.1349V45.9909C123.209 46.5136 123.461 46.8869 123.769 47.1109C124.077 47.3349 124.478 47.4469 124.973 47.4469ZM136.485 49.7009C134.898 49.7009 133.746 49.3742 133.027 48.7209C132.318 48.0676 131.921 46.9942 131.837 45.5009C131.818 44.9689 131.804 44.3202 131.795 43.5549C131.786 42.7802 131.781 41.9729 131.781 41.1329C131.781 40.2836 131.786 39.4669 131.795 38.6829C131.804 37.8989 131.818 37.2269 131.837 36.6669C131.94 35.1456 132.346 34.0582 133.055 33.4049C133.764 32.7516 134.898 32.4249 136.457 32.4249C137.988 32.4249 139.098 32.7469 139.789 33.3909C140.489 34.0256 140.876 35.0756 140.951 36.5409C140.96 36.7929 140.965 37.1896 140.965 37.7309C140.974 38.2629 140.974 38.8742 140.965 39.5649C140.965 40.2462 140.951 40.9276 140.923 41.6089H134.819C134.819 42.2902 134.824 42.9809 134.833 43.6809C134.852 44.3716 134.866 45.0809 134.875 45.8089C134.894 46.3969 135.024 46.8076 135.267 47.0409C135.519 47.2742 135.92 47.3909 136.471 47.3909C136.994 47.3909 137.367 47.2742 137.591 47.0409C137.815 46.8076 137.941 46.3969 137.969 45.8089C137.988 45.5289 137.997 45.1742 137.997 44.7449C137.997 44.3156 137.988 43.8396 137.969 43.3169H140.923C140.942 43.5689 140.956 43.9142 140.965 44.3529C140.974 44.7822 140.97 45.1649 140.951 45.5009C140.876 46.9942 140.498 48.0676 139.817 48.7209C139.145 49.3742 138.034 49.7009 136.485 49.7009ZM134.819 39.4389H137.997C138.006 38.9816 138.011 38.5336 138.011 38.0949C138.011 37.6562 138.006 37.2736 137.997 36.9469C137.988 36.6109 137.978 36.3682 137.969 36.2189C137.941 35.6869 137.81 35.3089 137.577 35.0849C137.353 34.8516 136.98 34.7349 136.457 34.7349C135.906 34.7349 135.51 34.8516 135.267 35.0849C135.024 35.3089 134.894 35.6869 134.875 36.2189C134.866 36.7882 134.856 37.3389 134.847 37.8709C134.838 38.4029 134.828 38.9256 134.819 39.4389ZM143.258 49.4629V32.6629H146.282V34.3149H146.842C147.169 33.7082 147.533 33.2416 147.934 32.9149C148.345 32.5882 148.923 32.4249 149.67 32.4249C150.697 32.4249 151.481 32.7376 152.022 33.3629C152.573 33.9789 152.853 35.0102 152.862 36.4569V49.4629H149.838V36.2049C149.829 35.6729 149.707 35.2856 149.474 35.0429C149.25 34.8002 148.905 34.6789 148.438 34.6789C148.009 34.6789 147.584 34.8096 147.164 35.0709C146.753 35.3229 146.459 35.6776 146.282 36.1349V49.4629H143.258ZM161.426 49.4629V34.9869H159.83V32.6629H161.426V30.9829C161.417 29.4896 161.785 28.4209 162.532 27.7769C163.279 27.1236 164.441 26.7969 166.018 26.7969C166.307 26.7969 166.615 26.8156 166.942 26.8529C167.278 26.8902 167.591 26.9369 167.88 26.9929V29.2329C167.591 29.2142 167.287 29.2002 166.97 29.1909C166.662 29.1816 166.349 29.1769 166.032 29.1769C165.491 29.1769 165.089 29.3029 164.828 29.5549C164.567 29.8069 164.441 30.2082 164.45 30.7589V32.6629H167.306V34.9869H164.45V49.4629H161.426ZM173.196 49.7009C172.076 49.7009 171.18 49.5469 170.508 49.2389C169.845 48.9309 169.36 48.4362 169.052 47.7549C168.744 47.0736 168.557 46.1776 168.492 45.0669C168.473 44.5349 168.454 43.9236 168.436 43.2329C168.426 42.5422 168.422 41.8282 168.422 41.0909C168.422 40.3536 168.426 39.6349 168.436 38.9349C168.454 38.2349 168.473 37.6049 168.492 37.0449C168.557 35.9436 168.744 35.0569 169.052 34.3849C169.36 33.7036 169.845 33.2089 170.508 32.9009C171.18 32.5836 172.076 32.4249 173.196 32.4249C174.334 32.4249 175.23 32.5836 175.884 32.9009C176.546 33.2089 177.032 33.7036 177.34 34.3849C177.648 35.0569 177.83 35.9436 177.886 37.0449C177.904 37.5862 177.918 38.2022 177.928 38.8929C177.937 39.5742 177.942 40.2882 177.942 41.0349C177.942 41.7722 177.937 42.4909 177.928 43.1909C177.918 43.8816 177.904 44.5069 177.886 45.0669C177.83 46.1682 177.648 47.0596 177.34 47.7409C177.032 48.4222 176.546 48.9216 175.884 49.2389C175.23 49.5469 174.334 49.7009 173.196 49.7009ZM173.196 47.3909C173.784 47.3909 174.204 47.2649 174.456 47.0129C174.708 46.7609 174.838 46.3549 174.848 45.7949C174.876 44.9736 174.894 44.1709 174.904 43.3869C174.922 42.6029 174.932 41.8236 174.932 41.0489C174.932 40.2742 174.922 39.4996 174.904 38.7249C174.894 37.9409 174.876 37.1382 174.848 36.3169C174.838 35.7662 174.708 35.3649 174.456 35.1129C174.213 34.8609 173.793 34.7349 173.196 34.7349C172.617 34.7349 172.197 34.8609 171.936 35.1129C171.674 35.3649 171.534 35.7662 171.516 36.3169C171.497 37.1382 171.478 37.9409 171.46 38.7249C171.45 39.5089 171.446 40.2882 171.446 41.0629C171.446 41.8376 171.45 42.6169 171.46 43.4009C171.478 44.1849 171.497 44.9829 171.516 45.7949C171.534 46.3549 171.674 46.7609 171.936 47.0129C172.197 47.2649 172.617 47.3909 173.196 47.3909ZM180.391 49.4629V32.6629H183.415V34.5109H183.975C184.096 33.7922 184.339 33.2929 184.703 33.0129C185.076 32.7329 185.566 32.5929 186.173 32.5929C186.369 32.5929 186.56 32.5976 186.747 32.6069C186.943 32.6162 187.097 32.6256 187.209 32.6349V34.9869H186.201C185.277 34.9869 184.61 35.1409 184.199 35.4489C183.798 35.7569 183.536 36.2142 183.415 36.8209V49.4629H180.391ZM196.509 49.6589C195.436 49.6589 194.643 49.3789 194.129 48.8189C193.625 48.2496 193.322 47.3302 193.219 46.0609C193.21 45.8556 193.201 45.6316 193.191 45.3889C193.191 45.1462 193.196 44.9269 193.205 44.7309C193.261 44.0216 193.406 43.4009 193.639 42.8689C193.882 42.3369 194.255 41.8609 194.759 41.4409C195.263 41.0209 195.94 40.6196 196.789 40.2369C197.237 40.0316 197.685 39.8449 198.133 39.6769C198.591 39.4996 199.053 39.3362 199.519 39.1869V36.3169C199.519 35.7849 199.417 35.3882 199.211 35.1269C199.006 34.8656 198.614 34.7349 198.035 34.7349C197.541 34.7349 197.181 34.8469 196.957 35.0709C196.743 35.2856 196.621 35.6682 196.593 36.2189C196.584 36.3962 196.575 36.6436 196.565 36.9609C196.565 37.2782 196.565 37.6049 196.565 37.9409C196.575 38.2676 196.584 38.5382 196.593 38.7529H193.653C193.644 38.5196 193.635 38.1789 193.625 37.7309C193.616 37.2829 193.616 36.8862 193.625 36.5409C193.663 35.5796 193.831 34.7956 194.129 34.1889C194.428 33.5822 194.899 33.1389 195.543 32.8589C196.187 32.5696 197.046 32.4249 198.119 32.4249C199.239 32.4249 200.117 32.5836 200.751 32.9009C201.395 33.2089 201.853 33.6989 202.123 34.3709C202.394 35.0429 202.529 35.9202 202.529 37.0029L202.515 49.4629H199.491V47.7969H199.071C198.801 48.4222 198.474 48.8889 198.091 49.1969C197.718 49.5049 197.191 49.6589 196.509 49.6589ZM197.699 47.4469C198.119 47.4469 198.479 47.3256 198.777 47.0829C199.085 46.8402 199.328 46.5042 199.505 46.0749V41.2869C199.179 41.3896 198.852 41.5109 198.525 41.6509C198.199 41.7816 197.867 41.9589 197.531 42.1829C197.018 42.4909 196.673 42.8596 196.495 43.2889C196.327 43.7089 196.229 44.1896 196.201 44.7309C196.192 44.9082 196.187 45.0902 196.187 45.2769C196.187 45.4636 196.192 45.6502 196.201 45.8369C196.248 46.3596 196.397 46.7609 196.649 47.0409C196.911 47.3116 197.261 47.4469 197.699 47.4469ZM205.137 49.4629V27.0629H208.161V49.4629H205.137ZM210.852 49.4629V27.0629H213.876V49.4629H210.852Z" fill="white"/>
</svg>
