<svg width="250" height="77" viewBox="0 0 250 77" fill="none" xmlns="http://www.w3.org/2000/svg">
<rect x="1.44531" y="1.46289" width="247" height="74" stroke="#6F31CF" stroke-width="2"/>
<mask id="path-2-inside-1_503_8913" fill="white">
<path d="M2.44531 2.46289H74.4453V74.4629H2.44531V2.46289Z"/>
</mask>
<path d="M2.44531 2.46289H74.4453V74.4629H2.44531V2.46289Z" fill="#180629"/>
<path d="M74.4453 2.46289H72.4453V74.4629H74.4453H76.4453V2.46289H74.4453Z" fill="#6F31CF" mask="url(#path-2-inside-1_503_8913)"/>
<path d="M35.112 20.1289H33.4453V21.7956H35.112V20.1289Z" fill="white"/>
<path d="M33.4479 21.7969V23.4635H31.7812V26.7969H30.1146V31.7969H21.7812V30.1302H23.4479V26.7969H25.1146V25.1302H26.7812V23.4635H30.1146V21.7969H33.4479Z" fill="white"/>
<path d="M40.1146 21.7956H41.7812V25.1289H43.4479V28.4622H45.1146V31.7956H31.7812V28.4622H33.4479V25.1289H35.1146V21.7956H36.7812V20.1289H40.1146V21.7956Z" fill="white"/>
<path d="M43.4479 20.1289H41.7812V21.7956H43.4479V20.1289Z" fill="white"/>
<path d="M55.112 30.1302V31.7969H46.7786V26.7969H45.112V23.4635H43.4453V21.7969H46.7786V23.4635H50.112V25.1302H51.7786V26.7969H53.4453V30.1302H55.112Z" fill="white"/>
<path d="M46.776 35.1296V41.7962H45.1094V43.4629H31.776V41.7962H30.1094V35.1296H31.776V33.4629H45.1094V35.1296H46.776Z" fill="white"/>
<path d="M20.1094 33.4629H30.1094V35.1296H28.4427V41.7962H30.1094V43.4629H20.1094V33.4629Z" fill="white"/>
<path d="M56.7812 33.4629V43.4629H46.7812V41.7962H48.4479V35.1296H46.7812V33.4629H56.7812Z" fill="white"/>
<path d="M55.112 45.1289V46.7956H53.4453V50.1289H51.7786V51.7956H50.112V53.4622H46.7786V55.1289H43.4453V53.4622H45.112V50.1289H46.7786V45.1289H55.112Z" fill="white"/>
<path d="M35.112 55.1289H33.4453V56.7956H35.112V55.1289Z" fill="white"/>
<path d="M33.4479 53.4622V55.1289H30.1146V53.4622H26.7812V51.7956H25.1146V50.1289H23.4479V46.7956H21.7812V45.1289H30.1146V50.1289H31.7812V53.4622H33.4479Z" fill="white"/>
<path d="M43.4479 55.1289H41.7812V56.7956H43.4479V55.1289Z" fill="white"/>
<path d="M41.7812 55.1289H40.1146V56.7956H36.7812V55.1289H35.1146V51.7956H33.4479V48.4622H31.7812V45.1289H45.1146V48.4622H43.4479V51.7956H41.7812V55.1289Z" fill="white"/>
<rect width="173" height="72" transform="translate(74.4453 2.46289)" fill="#180629"/>
<path d="M132.544 49.4629L129.73 27.0629H132.866L134.308 38.9209L134.714 46.7749H135.484L135.89 38.9209L137.332 27.0629H140.482L137.668 49.4629H132.544ZM142.049 29.7649V27.0629H145.619V29.7649H142.049ZM142.315 49.4629V32.6629H145.339V49.4629H142.315ZM148.03 49.4629V32.6629H151.054V34.5109H151.614C151.735 33.7922 151.978 33.2929 152.342 33.0129C152.715 32.7329 153.205 32.5929 153.812 32.5929C154.008 32.5929 154.199 32.5976 154.386 32.6069C154.582 32.6162 154.736 32.6256 154.848 32.6349V34.9869H153.84C152.916 34.9869 152.248 35.1409 151.838 35.4489C151.436 35.7569 151.175 36.2142 151.054 36.8209V49.4629H148.03ZM161.675 49.7009C159.957 49.7009 158.739 49.3742 158.021 48.7209C157.311 48.0676 156.957 46.9942 156.957 45.5009V34.9869H155.585V32.6629H156.985V27.9029H160.023V32.6629H162.697V34.9869H159.981V45.8369C159.981 46.4249 160.083 46.8356 160.289 47.0689C160.503 47.2929 160.97 47.4049 161.689 47.4049C161.931 47.4049 162.146 47.4002 162.333 47.3909C162.519 47.3816 162.734 47.3676 162.977 47.3489V49.5609C162.781 49.6076 162.571 49.6402 162.347 49.6589C162.132 49.6869 161.908 49.7009 161.675 49.7009ZM167.777 49.7009C166.76 49.7009 165.962 49.3882 165.383 48.7629C164.805 48.1376 164.515 47.1062 164.515 45.6689V32.6629H167.539V45.9209C167.539 46.4529 167.647 46.8402 167.861 47.0829C168.085 47.3256 168.431 47.4469 168.897 47.4469C169.336 47.4469 169.761 47.3209 170.171 47.0689C170.591 46.8076 170.885 46.4482 171.053 45.9909V32.6629H174.077V49.4629H171.053V47.8109H170.605C170.251 48.4642 169.845 48.9449 169.387 49.2529C168.939 49.5516 168.403 49.7009 167.777 49.7009ZM179.652 49.6589C178.578 49.6589 177.785 49.3789 177.272 48.8189C176.768 48.2496 176.464 47.3302 176.362 46.0609C176.352 45.8556 176.343 45.6316 176.334 45.3889C176.334 45.1462 176.338 44.9269 176.348 44.7309C176.404 44.0216 176.548 43.4009 176.782 42.8689C177.024 42.3369 177.398 41.8609 177.902 41.4409C178.406 41.0209 179.082 40.6196 179.932 40.2369C180.38 40.0316 180.828 39.8449 181.276 39.6769C181.733 39.4996 182.195 39.3362 182.662 39.1869V36.3169C182.662 35.7849 182.559 35.3882 182.354 35.1269C182.148 34.8656 181.756 34.7349 181.178 34.7349C180.683 34.7349 180.324 34.8469 180.1 35.0709C179.885 35.2856 179.764 35.6682 179.736 36.2189C179.726 36.3962 179.717 36.6436 179.708 36.9609C179.708 37.2782 179.708 37.6049 179.708 37.9409C179.717 38.2676 179.726 38.5382 179.736 38.7529H176.796C176.786 38.5196 176.777 38.1789 176.768 37.7309C176.758 37.2829 176.758 36.8862 176.768 36.5409C176.805 35.5796 176.973 34.7956 177.272 34.1889C177.57 33.5822 178.042 33.1389 178.686 32.8589C179.33 32.5696 180.188 32.4249 181.262 32.4249C182.382 32.4249 183.259 32.5836 183.894 32.9009C184.538 33.2089 184.995 33.6989 185.266 34.3709C185.536 35.0429 185.672 35.9202 185.672 37.0029L185.658 49.4629H182.634V47.7969H182.214C181.943 48.4222 181.616 48.8889 181.234 49.1969C180.86 49.5049 180.333 49.6589 179.652 49.6589ZM180.842 47.4469C181.262 47.4469 181.621 47.3256 181.92 47.0829C182.228 46.8402 182.47 46.5042 182.648 46.0749V41.2869C182.321 41.3896 181.994 41.5109 181.668 41.6509C181.341 41.7816 181.01 41.9589 180.674 42.1829C180.16 42.4909 179.815 42.8596 179.638 43.2889C179.47 43.7089 179.372 44.1896 179.344 44.7309C179.334 44.9082 179.33 45.0902 179.33 45.2769C179.33 45.4636 179.334 45.6502 179.344 45.8369C179.39 46.3596 179.54 46.7609 179.792 47.0409C180.053 47.3116 180.403 47.4469 180.842 47.4469ZM188.28 49.4629V27.0629H191.304V49.4629H188.28Z" fill="white"/>
</svg>
