<svg width="250" height="77" viewBox="0 0 250 77" fill="none" xmlns="http://www.w3.org/2000/svg">
    <rect x="1.44531" y="1.46289" width="247" height="74" stroke="#6F31CF" stroke-width="2" />
    <mask id="path-2-inside-1_503_8913" fill="white">
        <path d="M2.44531 2.46289H74.4453V74.4629H2.44531V2.46289Z" />
    </mask>
    <path d="M2.44531 2.46289H74.4453V74.4629H2.44531V2.46289Z" fill="#180629" />
    <path d="M74.4453 2.46289H72.4453V74.4629H74.4453H76.4453V2.46289H74.4453Z" fill="#6F31CF"
        mask="url(#path-2-inside-1_503_8913)" />
    <path d="M35.112 20.1289H33.4453V21.7956H35.112V20.1289Z" fill="white" />
    <path
        d="M33.4479 21.7969V23.4635H31.7812V26.7969H30.1146V31.7969H21.7812V30.1302H23.4479V26.7969H25.1146V25.1302H26.7812V23.4635H30.1146V21.7969H33.4479Z"
        fill="white" />
    <path
        d="M40.1146 21.7956H41.7812V25.1289H43.4479V28.4622H45.1146V31.7956H31.7812V28.4622H33.4479V25.1289H35.1146V21.7956H36.7812V20.1289H40.1146V21.7956Z"
        fill="white" />
    <path d="M43.4479 20.1289H41.7812V21.7956H43.4479V20.1289Z" fill="white" />
    <path
        d="M55.112 30.1302V31.7969H46.7786V26.7969H45.112V23.4635H43.4453V21.7969H46.7786V23.4635H50.112V25.1302H51.7786V26.7969H53.4453V30.1302H55.112Z"
        fill="white" />
    <path
        d="M46.776 35.1296V41.7962H45.1094V43.4629H31.776V41.7962H30.1094V35.1296H31.776V33.4629H45.1094V35.1296H46.776Z"
        fill="white" />
    <path d="M20.1094 33.4629H30.1094V35.1296H28.4427V41.7962H30.1094V43.4629H20.1094V33.4629Z"
        fill="white" />
    <path d="M56.7812 33.4629V43.4629H46.7812V41.7962H48.4479V35.1296H46.7812V33.4629H56.7812Z"
        fill="white" />
    <path
        d="M55.112 45.1289V46.7956H53.4453V50.1289H51.7786V51.7956H50.112V53.4622H46.7786V55.1289H43.4453V53.4622H45.112V50.1289H46.7786V45.1289H55.112Z"
        fill="white" />
    <path d="M35.112 55.1289H33.4453V56.7956H35.112V55.1289Z" fill="white" />
    <path
        d="M33.4479 53.4622V55.1289H30.1146V53.4622H26.7812V51.7956H25.1146V50.1289H23.4479V46.7956H21.7812V45.1289H30.1146V50.1289H31.7812V53.4622H33.4479Z"
        fill="white" />
    <path d="M43.4479 55.1289H41.7812V56.7956H43.4479V55.1289Z" fill="white" />
    <path
        d="M41.7812 55.1289H40.1146V56.7956H36.7812V55.1289H35.1146V51.7956H33.4479V48.4622H31.7812V45.1289H45.1146V48.4622H43.4479V51.7956H41.7812V55.1289Z"
        fill="white" />
    <rect width="173" height="72" transform="translate(74.4453 2.46289)" fill="#180629" />
    <path
        d="M87.886 49.4629V27.0629H95.88V29.7509H90.91V36.7789H95.6V39.4669H90.91V49.4629H87.886ZM97.6624 49.4629V32.6629H100.686V34.5109H101.246C101.368 33.7922 101.61 33.2929 101.974 33.0129C102.348 32.7329 102.838 32.5929 103.444 32.5929C103.64 32.5929 103.832 32.5976 104.018 32.6069C104.214 32.6162 104.368 32.6256 104.48 32.6349V34.9869H103.472C102.548 34.9869 101.881 35.1409 101.47 35.4489C101.069 35.7569 100.808 36.2142 100.686 36.8209V49.4629H97.6624ZM110.127 49.7009C109.007 49.7009 108.111 49.5469 107.439 49.2389C106.777 48.9309 106.291 48.4362 105.983 47.7549C105.675 47.0736 105.489 46.1776 105.423 45.0669C105.405 44.5349 105.386 43.9236 105.367 43.2329C105.358 42.5422 105.353 41.8282 105.353 41.0909C105.353 40.3536 105.358 39.6349 105.367 38.9349C105.386 38.2349 105.405 37.6049 105.423 37.0449C105.489 35.9436 105.675 35.0569 105.983 34.3849C106.291 33.7036 106.777 33.2089 107.439 32.9009C108.111 32.5836 109.007 32.4249 110.127 32.4249C111.266 32.4249 112.162 32.5836 112.815 32.9009C113.478 33.2089 113.963 33.7036 114.271 34.3849C114.579 35.0569 114.761 35.9436 114.817 37.0449C114.836 37.5862 114.85 38.2022 114.859 38.8929C114.869 39.5742 114.873 40.2882 114.873 41.0349C114.873 41.7722 114.869 42.4909 114.859 43.1909C114.85 43.8816 114.836 44.5069 114.817 45.0669C114.761 46.1682 114.579 47.0596 114.271 47.7409C113.963 48.4222 113.478 48.9216 112.815 49.2389C112.162 49.5469 111.266 49.7009 110.127 49.7009ZM110.127 47.3909C110.715 47.3909 111.135 47.2649 111.387 47.0129C111.639 46.7609 111.77 46.3549 111.779 45.7949C111.807 44.9736 111.826 44.1709 111.835 43.3869C111.854 42.6029 111.863 41.8236 111.863 41.0489C111.863 40.2742 111.854 39.4996 111.835 38.7249C111.826 37.9409 111.807 37.1382 111.779 36.3169C111.77 35.7662 111.639 35.3649 111.387 35.1129C111.145 34.8609 110.725 34.7349 110.127 34.7349C109.549 34.7349 109.129 34.8609 108.867 35.1129C108.606 35.3649 108.466 35.7662 108.447 36.3169C108.429 37.1382 108.41 37.9409 108.391 38.7249C108.382 39.5089 108.377 40.2882 108.377 41.0629C108.377 41.8376 108.382 42.6169 108.391 43.4009C108.41 44.1849 108.429 44.9829 108.447 45.7949C108.466 46.3549 108.606 46.7609 108.867 47.0129C109.129 47.2649 109.549 47.3909 110.127 47.3909ZM117.323 49.4629V32.6629H120.347V34.3149H120.893C121.229 33.6989 121.593 33.2322 121.985 32.9149C122.386 32.5882 122.969 32.4249 123.735 32.4249C124.491 32.4249 125.111 32.5882 125.597 32.9149C126.082 33.2416 126.432 33.7736 126.647 34.5109H127.165C127.501 33.8856 127.897 33.3816 128.355 32.9989C128.812 32.6162 129.428 32.4249 130.203 32.4249C131.22 32.4249 131.999 32.7376 132.541 33.3629C133.091 33.9789 133.367 35.0102 133.367 36.4569V49.4629H130.343V36.2049C130.343 35.6729 130.231 35.2856 130.007 35.0429C129.783 34.8002 129.437 34.6789 128.971 34.6789C128.541 34.6789 128.135 34.8189 127.753 35.0989C127.379 35.3696 127.099 35.7336 126.913 36.1909V49.4629H123.889V36.2049C123.879 35.6729 123.763 35.2856 123.539 35.0429C123.315 34.8002 122.969 34.6789 122.503 34.6789C122.055 34.6789 121.625 34.8002 121.215 35.0429C120.813 35.2856 120.524 35.6496 120.347 36.1349V49.4629H117.323ZM140.708 49.4629L143.452 27.0629H148.492L151.236 49.4629H148.142L147.61 43.8769H144.334L143.816 49.4629H140.708ZM144.628 41.1889H147.33L146.854 36.2609L146.364 29.7509H145.58L145.104 36.2609L144.628 41.1889ZM153.033 49.4629V32.6629H156.057V34.3149H156.617C156.944 33.7082 157.308 33.2416 157.709 32.9149C158.12 32.5882 158.699 32.4249 159.445 32.4249C160.472 32.4249 161.256 32.7376 161.797 33.3629C162.348 33.9789 162.628 35.0102 162.637 36.4569V49.4629H159.613V36.2049C159.604 35.6729 159.483 35.2856 159.249 35.0429C159.025 34.8002 158.68 34.6789 158.213 34.6789C157.784 34.6789 157.359 34.8096 156.939 35.0709C156.529 35.3229 156.235 35.6776 156.057 36.1349V49.4629H153.033ZM166.67 55.2589C166.39 55.2589 166.068 55.2402 165.704 55.2029C165.34 55.1749 165.013 55.1376 164.724 55.0909V52.8089C164.967 52.8276 165.279 52.8462 165.662 52.8649C166.054 52.8836 166.385 52.8929 166.656 52.8929C167.375 52.8929 167.865 52.7716 168.126 52.5289C168.397 52.2956 168.569 51.8849 168.644 51.2969L168.882 49.4629H167.076L164.416 32.6629H167.496L168.35 40.5589L169.078 47.1949H169.932L170.45 40.5589L171.192 32.6629H174.258L171.668 51.0729C171.528 52.0622 171.281 52.8649 170.926 53.4809C170.581 54.0969 170.067 54.5449 169.386 54.8249C168.705 55.1142 167.799 55.2589 166.67 55.2589ZM177.08 49.4629L175.12 32.6629H178.158L178.858 41.1189L179.194 47.1949H180.118L180.37 41.1189L181.126 32.7049H186.236L186.964 41.1189L187.216 47.1949H188.14L188.49 41.1189L189.218 32.6629H192.27L190.268 49.4629H184.99L184.5 42.9669L184.164 34.9729H183.184L182.834 42.9669L182.344 49.4629H177.08ZM194.049 49.4629V27.0629H197.073V34.3149H197.633C197.969 33.6989 198.333 33.2322 198.725 32.9149C199.126 32.5882 199.705 32.4249 200.461 32.4249C201.488 32.4249 202.276 32.7376 202.827 33.3629C203.378 33.9789 203.653 35.0102 203.653 36.4569V49.4629H200.629V36.2049C200.629 35.6729 200.512 35.2856 200.279 35.0429C200.046 34.8002 199.696 34.6789 199.229 34.6789C198.781 34.6789 198.352 34.8002 197.941 35.0429C197.54 35.2856 197.25 35.6496 197.073 36.1349V49.4629H194.049ZM210.71 49.7009C209.123 49.7009 207.97 49.3742 207.252 48.7209C206.542 48.0676 206.146 46.9942 206.062 45.5009C206.043 44.9689 206.029 44.3202 206.02 43.5549C206.01 42.7802 206.006 41.9729 206.006 41.1329C206.006 40.2836 206.01 39.4669 206.02 38.6829C206.029 37.8989 206.043 37.2269 206.062 36.6669C206.164 35.1456 206.57 34.0582 207.28 33.4049C207.989 32.7516 209.123 32.4249 210.682 32.4249C212.212 32.4249 213.323 32.7469 214.014 33.3909C214.714 34.0256 215.101 35.0756 215.176 36.5409C215.185 36.7929 215.19 37.1896 215.19 37.7309C215.199 38.2629 215.199 38.8742 215.19 39.5649C215.19 40.2462 215.176 40.9276 215.148 41.6089H209.044C209.044 42.2902 209.048 42.9809 209.058 43.6809C209.076 44.3716 209.09 45.0809 209.1 45.8089C209.118 46.3969 209.249 46.8076 209.492 47.0409C209.744 47.2742 210.145 47.3909 210.696 47.3909C211.218 47.3909 211.592 47.2742 211.816 47.0409C212.04 46.8076 212.166 46.3969 212.194 45.8089C212.212 45.5289 212.222 45.1742 212.222 44.7449C212.222 44.3156 212.212 43.8396 212.194 43.3169H215.148C215.166 43.5689 215.18 43.9142 215.19 44.3529C215.199 44.7822 215.194 45.1649 215.176 45.5009C215.101 46.9942 214.723 48.0676 214.042 48.7209C213.37 49.3742 212.259 49.7009 210.71 49.7009ZM209.044 39.4389H212.222C212.231 38.9816 212.236 38.5336 212.236 38.0949C212.236 37.6562 212.231 37.2736 212.222 36.9469C212.212 36.6109 212.203 36.3682 212.194 36.2189C212.166 35.6869 212.035 35.3089 211.802 35.0849C211.578 34.8516 211.204 34.7349 210.682 34.7349C210.131 34.7349 209.734 34.8516 209.492 35.0849C209.249 35.3089 209.118 35.6869 209.1 36.2189C209.09 36.7882 209.081 37.3389 209.072 37.8709C209.062 38.4029 209.053 38.9256 209.044 39.4389ZM217.483 49.4629V32.6629H220.507V34.5109H221.067C221.188 33.7922 221.431 33.2929 221.795 33.0129C222.168 32.7329 222.658 32.5929 223.265 32.5929C223.461 32.5929 223.652 32.5976 223.839 32.6069C224.035 32.6162 224.189 32.6256 224.301 32.6349V34.9869H223.293C222.369 34.9869 221.701 35.1409 221.291 35.4489C220.889 35.7569 220.628 36.2142 220.507 36.8209V49.4629H217.483ZM229.878 49.7009C228.291 49.7009 227.138 49.3742 226.42 48.7209C225.71 48.0676 225.314 46.9942 225.23 45.5009C225.211 44.9689 225.197 44.3202 225.188 43.5549C225.178 42.7802 225.174 41.9729 225.174 41.1329C225.174 40.2836 225.178 39.4669 225.188 38.6829C225.197 37.8989 225.211 37.2269 225.23 36.6669C225.332 35.1456 225.738 34.0582 226.448 33.4049C227.157 32.7516 228.291 32.4249 229.85 32.4249C231.38 32.4249 232.491 32.7469 233.182 33.3909C233.882 34.0256 234.269 35.0756 234.344 36.5409C234.353 36.7929 234.358 37.1896 234.358 37.7309C234.367 38.2629 234.367 38.8742 234.358 39.5649C234.358 40.2462 234.344 40.9276 234.316 41.6089H228.212C228.212 42.2902 228.216 42.9809 228.226 43.6809C228.244 44.3716 228.258 45.0809 228.268 45.8089C228.286 46.3969 228.417 46.8076 228.66 47.0409C228.912 47.2742 229.313 47.3909 229.864 47.3909C230.386 47.3909 230.76 47.2742 230.984 47.0409C231.208 46.8076 231.334 46.3969 231.362 45.8089C231.38 45.5289 231.39 45.1742 231.39 44.7449C231.39 44.3156 231.38 43.8396 231.362 43.3169H234.316C234.334 43.5689 234.348 43.9142 234.358 44.3529C234.367 44.7822 234.362 45.1649 234.344 45.5009C234.269 46.9942 233.891 48.0676 233.21 48.7209C232.538 49.3742 231.427 49.7009 229.878 49.7009ZM228.212 39.4389H231.39C231.399 38.9816 231.404 38.5336 231.404 38.0949C231.404 37.6562 231.399 37.2736 231.39 36.9469C231.38 36.6109 231.371 36.3682 231.362 36.2189C231.334 35.6869 231.203 35.3089 230.97 35.0849C230.746 34.8516 230.372 34.7349 229.85 34.7349C229.299 34.7349 228.902 34.8516 228.66 35.0849C228.417 35.3089 228.286 35.6869 228.268 36.2189C228.258 36.7882 228.249 37.3389 228.24 37.8709C228.23 38.4029 228.221 38.9256 228.212 39.4389Z"
        fill="white" />
</svg>