<svg width="24" height="24" viewBox="0 0 24 24" fill="none" xmlns="http://www.w3.org/2000/svg">
    <path
        d="M17.6923 20.7511L17.1908 21.2893C17.3369 21.4049 17.5246 21.4657 17.7169 21.4598L17.6923 20.7511ZM16.0523 18.32C15.9258 18.1721 15.7409 18.0767 15.5382 18.0548C15.3355 18.0328 15.1317 18.0861 14.9715 18.2028C14.8114 18.3196 14.708 18.4903 14.6842 18.6773C14.6604 18.8644 14.7181 19.0526 14.8446 19.2004L16.0523 18.32ZM16.6646 17.7377L16.3969 17.0731C16.3866 17.0763 16.3763 17.0796 16.3661 17.0831L16.6646 17.7377ZM13.9908 18.4705L13.8615 17.769L13.8492 17.7704L13.9908 18.4691V18.4705ZM9.21539 18.4534L9.06923 19.1493L9.07385 19.1507L9.21539 18.4534ZM5.15847 17.1427L4.73078 17.732C4.74723 17.7427 4.76417 17.7526 4.78154 17.7619L5.15847 17.1427ZM4.99231 17.0575L5.41847 16.4668C5.39181 16.4505 5.36406 16.4358 5.33539 16.4227L4.99231 17.0575ZM4.91847 17.0064L5.46154 16.5037C5.41127 16.4574 5.35433 16.4177 5.29231 16.3858L4.91847 17.0064ZM8.23231 19.1649C8.3588 19.0171 8.41649 18.8289 8.39268 18.6418C8.36888 18.4548 8.26554 18.2841 8.10539 18.1673C7.94524 18.0505 7.7414 17.9973 7.53872 18.0193C7.33603 18.0412 7.15111 18.1366 7.02462 18.2845L8.23231 19.1649ZM5.38462 20.7511L5.36001 21.4612C5.55596 21.467 5.74691 21.4035 5.89385 21.2837L5.38462 20.7511ZM0.769241 17.5517H1.14288e-05C-0.000213197 17.5897 0.00287366 17.6277 0.00924219 17.6653L0.769241 17.5517ZM3.42462 5.49808L2.96309 4.93005C2.84563 5.01158 2.75594 5.12246 2.70462 5.24957L3.42462 5.49808ZM8.60616 3.7102L9.37231 3.64346C9.35462 3.47008 9.26852 3.30875 9.13038 3.19014C8.99224 3.07154 8.8117 3.00392 8.62308 3.00016L8.60616 3.7102ZM8.02462 5.56482C8.044 5.75239 8.14331 5.92516 8.30069 6.04513C8.45808 6.16511 8.66065 6.22246 8.86385 6.20457C9.06704 6.18668 9.25422 6.09501 9.3842 5.94974C9.51417 5.80446 9.57631 5.61748 9.55692 5.42992L8.02462 5.56482ZM13.4492 5.47536C13.4233 5.66217 13.4789 5.85082 13.6036 5.99983C13.7284 6.14883 13.9122 6.24598 14.1146 6.26989C14.317 6.29381 14.5214 6.24254 14.6828 6.12735C14.8442 6.01217 14.9495 5.84252 14.9754 5.65571L13.4492 5.47536ZM14.4708 3.7102L14.4538 3.00016C14.2698 3.00387 14.0933 3.06839 13.9564 3.182C13.8194 3.29561 13.7312 3.45077 13.7077 3.61932L14.4708 3.7102ZM19.6523 5.49808L20.3723 5.24957C20.321 5.12246 20.2313 5.01158 20.1138 4.93005L19.6523 5.49808ZM22.3077 17.5517L23.0677 17.6653C23.0741 17.6277 23.0772 17.5897 23.0769 17.5517H22.3077ZM9.97077 14.0768L9.20154 14.0654V14.0768H9.97077ZM17.6923 20.7511L18.1938 20.2129L18.1908 20.2101C18.1675 20.1929 18.1449 20.1749 18.1231 20.1561C17.8441 19.9332 17.5692 19.706 17.2985 19.4745C16.7985 19.0513 16.2831 18.5912 16.0523 18.32L14.8446 19.2004C15.1646 19.5753 15.7723 20.1093 16.2569 20.5211C16.5573 20.7758 16.8614 21.0267 17.1692 21.2737L17.1846 21.2851L17.1892 21.2879L17.6923 20.7511ZM18.3631 16.1416C17.6554 16.5718 16.9877 16.8701 16.3969 17.0731L16.9323 18.4037C17.7329 18.1256 18.4968 17.7645 19.2092 17.3273L18.3631 16.1416ZM16.3677 17.0831C15.5637 17.4004 14.7228 17.631 13.8615 17.7704L14.12 19.1706C15.0969 19.0129 16.0509 18.7517 16.9631 18.3924L16.3677 17.0831ZM13.8492 17.7718C12.3637 18.024 10.8402 18.0182 9.35692 17.7548L9.07385 19.1507C10.7442 19.4465 12.4597 19.4522 14.1323 19.1677L13.8492 17.7718ZM9.36154 17.7562C8.4814 17.5972 7.61884 17.3643 6.78462 17.0604L6.22462 18.3824C7.01231 18.6665 7.96308 18.9533 9.06923 19.1493L9.36154 17.7562ZM6.78462 17.0604C6.35488 16.9081 5.93697 16.7287 5.53385 16.5236L4.78154 17.7619C5.28308 18.0217 5.77847 18.222 6.22462 18.3824L6.78462 17.0604ZM5.58462 16.552C5.53174 16.5192 5.47619 16.4916 5.41847 16.4668C5.3877 16.4526 5.40154 16.4554 5.41847 16.4668L4.56462 17.6483C4.6177 17.6808 4.67323 17.7097 4.73078 17.7349C4.76308 17.7491 4.74924 17.7448 4.73078 17.732L5.58616 16.5534L5.58462 16.552ZM5.33539 16.4227C5.38172 16.4441 5.42426 16.4719 5.46154 16.5051L4.37385 17.5091C4.40924 17.5418 4.49847 17.6227 4.6477 17.6937L5.33539 16.4227ZM5.29231 16.3858C5.14577 16.3109 5.0021 16.2314 4.86154 16.1472L4.84462 16.1359C4.84411 16.1359 4.84513 16.1359 4.84462 16.1359L4.40155 16.7181L3.96155 17.2989L3.96308 17.3003L3.96616 17.3032L3.97693 17.3089L4.00924 17.3287L4.12462 17.3983C4.22308 17.4551 4.36462 17.5347 4.54462 17.627L5.29231 16.3858ZM7.02462 18.2859C6.79077 18.56 6.27231 19.0314 5.77385 19.4631C5.50098 19.6986 5.22507 19.931 4.94616 20.1604L4.89385 20.2044L4.87847 20.2158L4.87693 20.2186H4.87539L5.38462 20.7511L5.89385 21.2837L5.89539 21.2822L5.90001 21.2794L5.91539 21.2666L5.97077 21.2212C6.25796 20.9833 6.54259 20.7428 6.82462 20.4998C7.30923 20.0794 7.91385 19.5384 8.23231 19.1649L7.02462 18.2845V18.2859ZM5.40924 20.0411C3.61539 19.9886 2.67385 19.3012 2.16309 18.6778C1.87898 18.3297 1.67006 17.9343 1.5477 17.5134C1.54029 17.487 1.53362 17.4605 1.5277 17.4338V17.4367L0.769241 17.5517C0.00924224 17.6653 0.00924219 17.6639 0.0107806 17.6653V17.6738C0.0220317 17.7345 0.0364069 17.7947 0.0538575 17.8542C0.226295 18.4618 0.525756 19.0325 0.935395 19.5341C1.71232 20.4813 3.07847 21.3944 5.36001 21.4612L5.40924 20.0411ZM1.53847 17.5517C1.53847 14.9004 2.18462 11.9566 2.84155 9.65039C3.1901 8.42898 3.58833 7.22011 4.03539 6.02635C4.06918 5.93811 4.10354 5.85007 4.13847 5.76222L4.14462 5.74801L3.42462 5.49808L2.70309 5.24957L2.70155 5.25525L2.69539 5.27087C2.65731 5.36515 2.62039 5.45983 2.58462 5.55488C2.12367 6.78462 1.71312 8.02997 1.35386 9.28827C0.681549 11.6385 1.14288e-05 14.7201 1.14288e-05 17.5517H1.53847ZM3.88616 6.06611C5.11693 5.21407 6.31231 4.80224 7.19385 4.60343C7.62795 4.50574 8.07082 4.4449 8.51693 4.42166C8.54204 4.4208 8.56717 4.42033 8.59231 4.42024L8.60616 3.7102L8.62308 3.00016H8.61539C8.60103 2.99995 8.58667 2.99995 8.57231 3.00016H8.4677C8.3444 3.0043 8.22126 3.01187 8.09846 3.02289C7.67069 3.06115 7.2465 3.12807 6.82924 3.22312C5.42899 3.54412 4.11378 4.12383 2.96309 4.92721L3.88616 6.06327V6.06611ZM7.84 3.77695L8.02462 5.56482L9.55692 5.42992L9.37231 3.64346L7.84 3.77695ZM14.9754 5.65571L15.2338 3.80109L13.7077 3.61932L13.4492 5.47536L14.9754 5.65571ZM14.4708 3.7102L14.4862 4.42024H14.4846C14.5097 4.4191 14.5349 4.4191 14.56 4.42024C14.6185 4.42308 14.7138 4.42734 14.8354 4.4387C15.0815 4.45858 15.4415 4.50545 15.8831 4.60485C17.0813 4.88065 18.2065 5.37774 19.1908 6.06611L20.1138 4.93005C18.9632 4.12664 17.6479 3.54692 16.2477 3.22596C15.8305 3.13041 15.4063 3.06302 14.9785 3.02431C14.8061 3.0095 14.6331 3.00144 14.46 3.00016H14.4538L14.4708 3.7102ZM19.6523 5.49808L18.9308 5.74517L18.9323 5.74943L18.9385 5.76222L18.9585 5.81476L19.04 6.02635C19.4875 7.2201 19.8863 8.42897 20.2354 9.65039C20.8938 11.9566 21.5385 14.9004 21.5385 17.5517H23.0769C23.0769 14.7201 22.3938 11.6385 21.7231 9.28827C21.3637 8.02999 20.9532 6.78465 20.4923 5.55488C20.4635 5.47995 20.4343 5.40515 20.4046 5.33051L20.3815 5.27087L20.3754 5.25667L20.3738 5.25099L19.6508 5.49808H19.6523ZM22.3077 17.5517L21.5492 17.4381V17.4338L21.5461 17.4452L21.5308 17.5119C21.5123 17.5758 21.4846 17.6724 21.4369 17.7917C21.3415 18.0331 21.18 18.354 20.9138 18.6778C20.4031 19.3012 19.4615 19.9886 17.6677 20.0411L17.7169 21.4612C19.9985 21.3944 21.3631 20.4813 22.1415 19.5355C22.5513 19.0335 22.8508 18.4623 23.0231 17.8542C23.0382 17.7987 23.0515 17.7428 23.0631 17.6866L23.0661 17.6724V17.6667C23.0661 17.6653 23.0661 17.6639 22.3077 17.5517ZM8.09077 11.478C6.54924 11.478 5.44001 12.7092 5.44001 14.0768H6.97847C6.97847 13.3696 7.5277 12.8981 8.09077 12.8981V11.478ZM5.44001 14.0768C5.44001 15.45 6.57231 16.6755 8.09077 16.6755V15.2554C7.54154 15.2554 6.97847 14.7811 6.97847 14.0768H5.44001ZM8.09077 16.6755C9.62923 16.6755 10.74 15.4457 10.74 14.0768H9.20154C9.20154 14.7868 8.65231 15.2554 8.09077 15.2554V16.6755ZM10.7385 14.091C10.7631 12.7021 9.62 11.478 8.09077 11.478L8.08923 12.8995C8.66154 12.8995 9.21231 13.3795 9.2 14.0668L10.7385 14.091ZM14.82 11.478C13.2785 11.4794 12.1692 12.7107 12.1692 14.0782H13.7077C13.7077 13.371 14.2569 12.8995 14.82 12.8995V11.4794V11.478ZM12.1692 14.0796C12.1692 15.4528 13.3015 16.6784 14.82 16.6784V15.2583C14.2708 15.2583 13.7077 14.784 13.7077 14.0796H12.1692ZM14.82 16.6784C16.3585 16.6784 17.4692 15.4486 17.4692 14.0796H15.9308C15.9308 14.7896 15.3815 15.2583 14.82 15.2583V16.6784ZM17.4692 14.0796C17.4692 12.7121 16.36 11.4794 14.82 11.4794V12.8995C15.3815 12.8995 15.9308 13.3724 15.9308 14.0796H17.4692ZM5.75385 7.88523C7.97385 6.76763 9.78308 6.24646 11.5431 6.24504C13.3046 6.24504 15.1092 6.76337 17.3246 7.88381L18.0631 6.63982C15.7215 5.45406 13.6554 4.82354 11.5431 4.82496C9.43077 4.82496 7.36308 5.4569 5.01847 6.6384L5.75385 7.88523Z"
        fill="white" />
</svg>