<svg width="24" height="24" viewBox="0 0 24 24" fill="none" xmlns="http://www.w3.org/2000/svg">
<path fill-rule="evenodd" clip-rule="evenodd" d="M14.7707 3.08076C15.2797 2.99376 15.8487 2.96476 16.3847 3.05576C17.3394 3.21703 18.2241 3.66039 18.9247 4.32876C19.3807 4.33876 19.8297 4.24876 20.2267 4.12076C20.6104 3.99563 20.9787 3.82756 21.3247 3.61976L21.3337 3.61376C21.4777 3.51781 21.6504 3.47461 21.8226 3.49148C21.9948 3.50835 22.1559 3.58424 22.2786 3.70631C22.4012 3.82837 22.4779 3.98908 22.4956 4.16121C22.5133 4.33334 22.4709 4.5063 22.3757 4.65076C22.1687 4.96576 21.8797 5.52776 21.5567 6.15776L21.4017 6.45876C21.2167 6.81876 21.0267 7.18276 20.8497 7.49476C20.7387 7.69076 20.6197 7.88976 20.4997 8.06176V8.33576C20.512 9.9744 20.1978 11.5991 19.5754 13.115C18.9531 14.6309 18.035 16.0077 16.8748 17.1649C15.7147 18.3222 14.3356 19.2368 12.8182 19.8554C11.3007 20.474 9.67527 20.7841 8.03667 20.7678C5.66211 20.7699 3.33753 20.0858 1.34267 18.7978C1.20008 18.7055 1.09302 18.5676 1.03898 18.4067C0.984948 18.2457 0.987145 18.0711 1.04521 17.9115C1.10328 17.752 1.21379 17.6168 1.35865 17.5282C1.50351 17.4396 1.67416 17.4028 1.84267 17.4238C3.22054 17.5885 4.61705 17.3662 5.87567 16.7818C5.2616 16.5026 4.7124 16.0986 4.26304 15.5955C3.81368 15.0925 3.47401 14.5013 3.26567 13.8598C3.22597 13.7369 3.21864 13.6059 3.24439 13.4795C3.27015 13.353 3.32811 13.2353 3.41267 13.1378L3.42267 13.1278C2.91505 12.6755 2.50823 12.1216 2.22862 11.5019C1.94901 10.8822 1.80286 10.2106 1.79967 9.53076V9.47876C1.7996 9.31411 1.8537 9.15402 1.95364 9.02317C2.05358 8.89233 2.1938 8.79801 2.35267 8.75476C2.01404 8.0791 1.83835 7.33353 1.83967 6.57776C1.8391 5.72093 2.06322 4.87893 2.48967 4.13576C2.55026 4.03026 2.6356 3.94109 2.73833 3.87593C2.84107 3.81076 2.95811 3.77157 3.07937 3.76173C3.20063 3.75189 3.32246 3.77169 3.43436 3.81943C3.54626 3.86717 3.64486 3.94141 3.72167 4.03576C5.47086 6.19069 7.97685 7.59642 10.7277 7.96576C10.7038 7.06594 10.9308 6.17724 11.3833 5.39909C11.8357 4.62095 12.4958 3.98408 13.2897 3.55976C13.6917 3.34576 14.2237 3.17476 14.7717 3.08076H14.7707ZM3.49267 10.6288C3.68686 11.1753 4.01961 11.662 4.45836 12.0413C4.89711 12.4207 5.42682 12.6796 5.99567 12.7928C6.15956 12.8254 6.30785 12.9119 6.41701 13.0384C6.52617 13.1649 6.58994 13.3243 6.59821 13.4912C6.60648 13.6581 6.55877 13.823 6.46266 13.9597C6.36654 14.0964 6.22753 14.1971 6.06767 14.2458C5.79567 14.3288 5.51667 14.3858 5.23367 14.4188C5.54092 14.8151 5.93303 15.1376 6.38121 15.3625C6.8294 15.5875 7.32228 15.7092 7.82367 15.7188C7.97832 15.7217 8.1283 15.7723 8.25304 15.8638C8.37778 15.9553 8.47118 16.0831 8.52046 16.2297C8.56974 16.3763 8.57247 16.5346 8.52829 16.6828C8.48411 16.8311 8.39517 16.962 8.27367 17.0578C7.23092 17.8782 6.01914 18.4571 4.72567 18.7528C5.79654 19.0955 6.91428 19.2693 8.03867 19.2678H8.04767C9.48768 19.283 10.9163 19.011 12.25 18.4678C13.5837 17.9246 14.7958 17.1211 15.8155 16.1041C16.8351 15.0872 17.6419 13.8772 18.1886 12.545C18.7353 11.2127 19.011 9.78481 18.9997 8.34476V7.80976C18.9995 7.62765 19.0656 7.45171 19.1857 7.31476C19.2557 7.23576 19.3757 7.05376 19.5457 6.75476C19.7057 6.47276 19.8837 6.13276 20.0687 5.77376L20.1017 5.70776C19.5793 5.82531 19.0414 5.85807 18.5087 5.80476C18.3285 5.78514 18.1616 5.70095 18.0387 5.56776C17.5358 5.02244 16.8661 4.65946 16.1347 4.53576C15.7658 4.48358 15.3908 4.49202 15.0247 4.56076C14.6678 4.61632 14.3212 4.7252 13.9967 4.88376C13.3423 5.23336 12.8226 5.79028 12.5189 6.46715C12.2152 7.14402 12.1448 7.90255 12.3187 8.62376C12.346 8.73717 12.3466 8.8554 12.3202 8.96905C12.2939 9.0827 12.2414 9.18864 12.1669 9.27844C12.0925 9.36825 11.9981 9.43945 11.8913 9.48637C11.7845 9.5333 11.6682 9.55466 11.5517 9.54876C8.47925 9.39335 5.57453 8.1005 3.40267 5.92176C3.36047 6.13821 3.33938 6.35824 3.33967 6.57876V6.58076C3.33854 7.13151 3.47363 7.67398 3.7329 8.15989C3.99216 8.64579 4.36756 9.06005 4.82567 9.36576C4.9602 9.4563 5.06175 9.58801 5.11512 9.74113C5.16849 9.89426 5.17078 10.0606 5.12167 10.2151C5.07256 10.3696 4.97469 10.5041 4.84271 10.5983C4.71074 10.6926 4.55178 10.7415 4.38967 10.7378C4.08787 10.7294 3.78754 10.6936 3.49267 10.6288Z" fill="white"/>
</svg>
