<svg width="24" height="24" viewBox="0 0 24 24" fill="none" xmlns="http://www.w3.org/2000/svg">
<path d="M7.4284 4.68136C7.43197 5.14023 7.25486 5.58207 6.93533 5.91143C6.61581 6.24078 6.17953 6.4312 5.72077 6.44154C5.26296 6.42474 4.8291 6.23271 4.50884 5.90512C4.18859 5.57754 4.00643 5.13944 4 4.68136C4.0199 4.23506 4.20876 3.81302 4.5283 3.50081C4.84783 3.18859 5.27413 3.00956 5.72077 3C6.16611 3.00974 6.5909 3.18922 6.90831 3.50174C7.22572 3.81426 7.41176 4.23623 7.4284 4.68136ZM4.1839 9.56782C4.1839 8.55638 4.82755 8.71401 5.72077 8.71401C6.61399 8.71401 7.2445 8.55638 7.2445 9.56782V19.4196C7.2445 20.4441 6.60086 20.234 5.72077 20.234C4.84068 20.234 4.1839 20.4441 4.1839 19.4196V9.56782ZM9.8979 9.56782C9.8979 9.00299 10.1081 8.79282 10.4365 8.72714C10.7649 8.66146 11.8945 8.72714 12.2886 8.72714C12.6827 8.72714 12.8403 9.37079 12.8272 9.85681C13.1642 9.40441 13.6118 9.04607 14.1269 8.81608C14.6421 8.5861 15.2077 8.49216 15.7695 8.54324C16.3213 8.50951 16.8739 8.59223 17.3916 8.78603C17.9093 8.97982 18.3804 9.28036 18.7743 9.66811C19.1683 10.0559 19.4762 10.5222 19.6782 11.0367C19.8802 11.5512 19.9717 12.1025 19.9467 12.6547V19.3801C19.9467 20.4047 19.3162 20.1946 18.4229 20.1946C17.5297 20.1946 16.8992 20.4047 16.8992 19.3801V14.1259C16.9223 13.8555 16.8869 13.5832 16.7955 13.3277C16.7041 13.0722 16.5587 12.8393 16.3693 12.6449C16.1799 12.4505 15.9509 12.2992 15.6978 12.2011C15.4447 12.1031 15.1735 12.0607 14.9026 12.0767C14.6329 12.0699 14.3649 12.1204 14.1162 12.2249C13.8675 12.3295 13.6438 12.4856 13.4601 12.6831C13.2763 12.8805 13.1365 13.1148 13.05 13.3703C12.9636 13.6258 12.9324 13.8968 12.9585 14.1653V19.4196C12.9585 20.4441 12.3149 20.234 11.4216 20.234C10.5284 20.234 9.8979 20.4441 9.8979 19.4196V9.56782Z" stroke="white" stroke-width="1.31356" stroke-linecap="round" stroke-linejoin="round"/>
</svg>
