<svg width="24" height="24" viewBox="0 0 24 24" fill="none" xmlns="http://www.w3.org/2000/svg">
<path d="M5.033 5.207C7.8045 5.069 9.96 5 11.5 5C13.04 5 15.1965 5.069 17.9695 5.2075C18.6951 5.24372 19.383 5.54203 19.9053 6.04706C20.4276 6.55208 20.7489 7.22949 20.8095 7.9535C20.9365 9.4705 21 10.8065 21 11.962C21 13.1315 20.935 14.486 20.805 16.026C20.7446 16.7417 20.4295 17.412 19.9169 17.9151C19.4043 18.4181 18.7282 18.7206 18.0115 18.7675C15.641 18.9225 13.4705 19 11.5 19C9.53 19 7.36 18.9225 4.991 18.7675C4.27453 18.7206 3.59863 18.4184 3.08605 17.9156C2.57346 17.4129 2.2582 16.7429 2.1975 16.0275C2.066 14.476 2 13.1205 2 11.962C2 10.817 2.0645 9.4805 2.1925 7.952C2.25334 7.22817 2.57473 6.551 3.09702 6.04618C3.61931 5.54136 4.30702 5.24319 5.0325 5.207H5.033Z" stroke="white" stroke-width="1.5" stroke-linejoin="round"/>
<path d="M10 9.80482V14.2028C9.99997 14.2803 10.0209 14.3563 10.0607 14.4228C10.1004 14.4893 10.1574 14.5437 10.2256 14.5804C10.2938 14.6171 10.3707 14.6346 10.4481 14.6311C10.5254 14.6275 10.6004 14.6031 10.665 14.5603L13.9635 12.3803C14.0225 12.3415 14.0709 12.2886 14.1045 12.2265C14.1381 12.1644 14.1558 12.095 14.1561 12.0244C14.1564 11.9538 14.1393 11.8842 14.1062 11.8218C14.0731 11.7594 14.0251 11.7062 13.9665 11.6668L10.6675 9.44882C10.603 9.40549 10.528 9.38051 10.4504 9.37654C10.3728 9.37257 10.2956 9.38976 10.2271 9.42627C10.1585 9.46279 10.1012 9.51725 10.0612 9.58384C10.0212 9.65043 10 9.72664 10 9.80432V9.80482Z" stroke="white" stroke-width="1.3" stroke-linejoin="round"/>
</svg>
